<?xml version="1.0"?>
<svg width="410.916" height="410.916" xmlns="http://www.w3.org/2000/svg" xmlns:svg="http://www.w3.org/2000/svg" version="1.1" xml:space="preserve">
 <g class="layer">
  <title>Layer 1</title>
  <g id="svg_1">
   <path d="m410.92,375.42l0,22.42l-410.92,0l0,-384.76l22.41,0l0,362.35l388.51,0l0,-0.01zm-102.73,-336.57l-255.89,0l0,25.22l255.88,0l0,-25.22l0.01,0zm-82.19,46.14l-136.34,0l0,25.21l136.34,0l0,-25.21zm-20.54,63.03l136.34,0l0,-25.21l-136.34,0l0,25.21zm4.67,54.46l-136.35,0l0,25.21l136.35,0l0,-25.21zm0,68.64l0,-25.21l-82.18,0l0,25.21l82.18,0zm85.92,32.22l0,-25.22l-79.39,0l0,25.22l79.39,0zm6.06,31.75l79.39,0l0,-25.21l-79.39,0l0,25.21z" fill="#007fff" id="svg_2"/>
  </g>
 </g>
</svg>