<?xml version="1.0" encoding="UTF-8"?>
<svg version="1.1" xmlns="http://www.w3.org/2000/svg" width="512" height="512">
<path d="M0 0 C1.68056006 -0.00373881 3.36111838 -0.00834126 5.04167396 -0.01373065 C9.65036332 -0.02594759 14.25898001 -0.02570171 18.86768186 -0.02334189 C23.84194451 -0.0229334 28.81618397 -0.03397606 33.79043579 -0.04345703 C43.53272563 -0.06006108 53.27499127 -0.06556632 63.01729407 -0.06668179 C70.93795309 -0.06763259 78.85860414 -0.07174447 86.77926064 -0.07808304 C109.24385747 -0.09569417 131.7084352 -0.10492216 154.17303898 -0.10342209 C155.98917233 -0.10330222 155.98917233 -0.10330222 157.84199524 -0.10317993 C159.66035041 -0.10305729 159.66035041 -0.10305729 161.51544002 -0.10293217 C181.15795594 -0.10211941 200.80039515 -0.12125501 220.44288888 -0.14945666 C240.6195818 -0.17819631 260.79623733 -0.19199635 280.97295123 -0.19026911 C292.29742695 -0.18960556 303.62182226 -0.19508245 314.94627953 -0.21662521 C324.58890443 -0.23485123 334.23141249 -0.23917266 343.87404718 -0.22560637 C348.79111711 -0.21908381 353.70796294 -0.2189338 358.62501144 -0.23631287 C363.13252281 -0.25208016 367.63963308 -0.24914273 372.14713488 -0.2317446 C373.7716134 -0.22868274 375.39612212 -0.23227622 377.020565 -0.24346475 C395.61609746 -0.36298858 411.80181156 5.05118022 425.52339172 17.93759155 C437.34894463 29.65383263 443.79353365 45.22444186 443.90817366 61.70330955 C443.91320158 64.01266324 443.90847318 66.32188831 443.90361023 68.63124084 C443.90734904 70.3118009 443.91195148 71.99235923 443.91734087 73.6729148 C443.92955782 78.28160416 443.92931194 82.89022085 443.92695212 87.49892271 C443.92654363 92.47318536 443.93758629 97.44742482 443.94706726 102.42167664 C443.96367131 112.16396648 443.96917655 121.90623211 443.97029202 131.64853492 C443.97124281 139.56919394 443.9753547 147.48984498 443.98169327 155.41050148 C443.9993044 177.87509831 444.00853239 200.33967604 444.00703232 222.80427983 C444.00691245 224.62041317 444.00691245 224.62041317 444.00679016 226.47323608 C444.0067084 227.68547286 444.00662664 228.89770964 444.0065424 230.14668087 C444.00572964 249.78919678 444.02486524 269.43163599 444.05306689 289.07412972 C444.08180654 309.25082264 444.09560658 329.42747817 444.09387934 349.60419208 C444.09321579 360.9286678 444.09869268 372.25306311 444.12023544 383.57752037 C444.13846146 393.22014528 444.14278289 402.86265334 444.1292166 412.50528803 C444.12269404 417.42235795 444.12254403 422.33920379 444.1399231 427.25625229 C444.15569039 431.76376365 444.15275295 436.27087392 444.13535483 440.77837572 C444.13229297 442.40285424 444.13588644 444.02736297 444.14707498 445.65180584 C444.26659881 464.24733831 438.85243001 480.4330524 425.96601868 494.15463257 C414.2497776 505.98018548 398.67916836 512.42477449 382.20030067 512.5394145 C379.89094699 512.54444242 377.58172192 512.53971402 375.27236938 512.53485107 C373.59180933 512.53858989 371.911251 512.54319233 370.23069543 512.54858172 C365.62200607 512.56079867 361.01338937 512.56055279 356.40468752 512.55819297 C351.43042487 512.55778447 346.45618541 512.56882714 341.48193359 512.57830811 C331.73964375 512.59491215 321.99737812 512.60041739 312.25507531 512.60153286 C304.33441629 512.60248366 296.41376525 512.60659555 288.49310875 512.61293411 C266.02851192 512.63054524 243.56393419 512.63977324 221.0993304 512.63827316 C219.28319706 512.6381533 219.28319706 512.6381533 217.43037415 512.63803101 C216.21813737 512.63794924 215.00590059 512.63786748 213.75692936 512.63778324 C194.11441345 512.63697048 174.47197424 512.65610609 154.82948051 512.68430774 C134.65278758 512.71304738 114.47613206 512.72684742 94.29941815 512.72512019 C82.97494243 512.72445664 71.65054712 512.72993352 60.32608986 512.75147629 C50.68346495 512.76970231 41.04095689 512.77402373 31.3983222 512.76045744 C26.48125228 512.75393489 21.56440644 512.75378488 16.64735794 512.77116394 C12.13984658 512.78693123 7.63273631 512.7839938 3.12523451 512.76659568 C1.50075599 512.76353381 -0.12375274 512.76712729 -1.74819561 512.77831583 C-20.34372808 512.89783965 -36.52944217 507.48367086 -50.25102234 494.59725952 C-62.07657525 482.88101845 -68.52116426 467.31040921 -68.63580427 450.83154152 C-68.6408322 448.52218783 -68.63610379 446.21296276 -68.63124084 443.90361023 C-68.63497966 442.22305017 -68.6395821 440.54249185 -68.64497149 438.86193627 C-68.65718844 434.25324691 -68.65694256 429.64463022 -68.65458274 425.03592837 C-68.65417424 420.06166572 -68.66521691 415.08742626 -68.67469788 410.11317444 C-68.69130192 400.3708846 -68.69680716 390.62861896 -68.69792263 380.88631616 C-68.69887343 372.96565714 -68.70298532 365.04500609 -68.70932388 357.12434959 C-68.72693501 334.65975276 -68.73616301 312.19517503 -68.73466294 289.73057125 C-68.73458302 288.51981568 -68.73450311 287.30906012 -68.73442078 286.06161499 C-68.73433902 284.84937821 -68.73425725 283.63714143 -68.73417301 282.38817021 C-68.73336025 262.74565429 -68.75249586 243.10321508 -68.78069751 223.46072135 C-68.80943715 203.28402843 -68.82323719 183.1073729 -68.82150996 162.930659 C-68.82084641 151.60618328 -68.82632329 140.28178797 -68.84786606 128.9573307 C-68.86609208 119.31470579 -68.87041351 109.67219774 -68.85684721 100.02956305 C-68.85032466 95.11249312 -68.85017465 90.19564729 -68.86755371 85.27859879 C-68.883321 80.77108742 -68.88038357 76.26397715 -68.86298545 71.75647535 C-68.85992358 70.13199683 -68.86351706 68.50748811 -68.8747056 66.88304523 C-68.99422943 48.28751277 -63.58006063 32.10179867 -50.69364929 18.38021851 C-36.47987099 4.03382649 -19.42149569 -0.04089707 0 0 Z " fill="#FEFEFE" transform="translate(68.36381530761719,-0.267425537109375)"/>
<path d="M0 0 C1.21623047 -0.01160156 2.43246094 -0.02320313 3.68554688 -0.03515625 C27.44511379 0.04055135 48.88426287 9.23593701 66.0234375 25.515625 C72.91613811 32.91365557 85.6875 46.71216476 85.6875 57.375 C84.97851562 57.43816406 84.26953125 57.50132812 83.5390625 57.56640625 C68.25822255 59.32388784 52.96205964 63.65305886 38.50317383 68.84399414 C36.6875 69.375 36.6875 69.375 33.6875 69.375 C31.9609375 67.21484375 31.9609375 67.21484375 30.0625 64.3125 C22.94623921 54.19650154 12.01442739 46.63493669 -0.3125 44.375 C-13.81011373 43.44982697 -23.93625565 45.39622964 -34.3125 54.375 C-44.77965601 65.16798188 -48.73610211 78.70049148 -48.60351562 93.37841797 C-48.08118786 117.17818593 -34.9217762 137.9890418 -18.3125 154.375 C4.80872238 175.45718545 30.4218652 186.83006231 61.81103516 185.59765625 C80.07078111 184.18423847 97.38793035 177.21899368 109.6875 163.375 C118.65766976 151.06229222 122.03233357 138.48548956 120.6875 123.375 C118.13841835 111.73851425 111.22637084 102.32705841 101.6875 95.375 C87.78105278 86.8338771 72.74919047 84.18780585 56.7043457 84.18969727 C54.65489258 84.18753159 52.60599732 84.16940044 50.55664062 84.15039062 C38.91418938 84.09999992 28.05227811 85.4047208 16.9296875 88.88671875 C14.6875 89.375 14.6875 89.375 11.6875 88.375 C50.08973667 70.10040192 93.76504465 58.3453267 135.74609375 71.3203125 C138.15133679 72.21336686 140.39770688 73.22000735 142.6875 74.375 C143.57308594 74.80554688 144.45867187 75.23609375 145.37109375 75.6796875 C164.94227025 85.72314839 178.78108926 102.35168928 185.98046875 123.1015625 C187.76006121 129.10206561 189.43037458 135.09685424 189.6875 141.375 C189.76484375 143.09589844 189.76484375 143.09589844 189.84375 144.8515625 C190.60511448 170.17794277 181.73353218 194.5316926 164.6875 213.375 C163.91535156 214.22964844 163.14320313 215.08429688 162.34765625 215.96484375 C143.32538089 235.97368768 116.62267007 246.67745817 89.6875 250.375 C88.00140625 250.64957031 88.00140625 250.64957031 86.28125 250.9296875 C45.82475558 255.94277485 5.3817611 239.49384874 -26.3125 215.375 C-27.67568359 214.35019531 -27.67568359 214.35019531 -29.06640625 213.3046875 C-57.2545688 191.20785665 -77.32255922 161.06738426 -86.3125 126.375 C-86.49941406 125.66956055 -86.68632812 124.96412109 -86.87890625 124.23730469 C-88.72090269 116.35948061 -88.70990295 108.42094136 -88.6875 100.375 C-88.68695618 99.64233917 -88.68641235 98.90967834 -88.68585205 98.15481567 C-88.64711025 86.80734176 -87.91680551 76.19881389 -84.3125 65.375 C-84.09287598 64.68712402 -83.87325195 63.99924805 -83.64697266 63.29052734 C-79.25135476 49.76770286 -72.70206381 38.11636872 -63.3125 27.375 C-62.73242188 26.69953125 -62.15234375 26.0240625 -61.5546875 25.328125 C-51.80151728 14.77274597 -38.87546529 7.7301258 -25.3125 3.375 C-24.52141846 3.10719727 -23.73033691 2.83939453 -22.9152832 2.56347656 C-15.24010319 0.18368494 -7.99614026 -0.07555408 0 0 Z " fill="#326291" transform="translate(260.3125,130.625)"/>
<path d="M0 0 C1.21623047 -0.01160156 2.43246094 -0.02320313 3.68554688 -0.03515625 C27.44511379 0.04055135 48.88426287 9.23593701 66.0234375 25.515625 C72.91613811 32.91365557 85.6875 46.71216476 85.6875 57.375 C84.97851562 57.43816406 84.26953125 57.50132812 83.5390625 57.56640625 C68.25822255 59.32388784 52.96205964 63.65305886 38.50317383 68.84399414 C36.6875 69.375 36.6875 69.375 33.6875 69.375 C31.9609375 67.21484375 31.9609375 67.21484375 30.0625 64.3125 C22.94623921 54.19650154 12.01442739 46.63493669 -0.3125 44.375 C-13.81011373 43.44982697 -23.93625565 45.39622964 -34.3125 54.375 C-44.77965601 65.16798188 -48.73610211 78.70049148 -48.60351562 93.37841797 C-48.17449588 112.92662313 -39.66077422 128.03381448 -28.3125 143.375 C-28.6425 144.035 -28.9725 144.695 -29.3125 145.375 C-17.55892695 170.44928917 1.77126101 194.22706759 21.67504883 213.2890625 C23.04686744 214.61645229 24.37208608 215.99169375 25.6875 217.375 C25.6875 218.035 25.6875 218.695 25.6875 219.375 C26.27015625 219.47941406 26.8528125 219.58382812 27.453125 219.69140625 C30.02395423 220.47793617 31.4215058 221.55065891 33.4375 223.3125 C34.05109375 223.83714844 34.6646875 224.36179687 35.296875 224.90234375 C36.6875 226.375 36.6875 226.375 36.6875 228.375 C37.55375 228.5296875 37.55375 228.5296875 38.4375 228.6875 C41.09030769 229.49808013 42.51744517 230.63895614 44.6875 232.375 C45.84663162 233.25995763 47.01396357 234.13423539 48.1875 235 C48.7546875 235.42539062 49.321875 235.85078125 49.90625 236.2890625 C51.64483365 237.47876121 51.64483365 237.47876121 53.71875 237.8359375 C55.6875 238.375 55.6875 238.375 57.09106445 239.78320312 C59.74803786 242.43245632 63.0472891 243.83156093 66.375 245.5 C67.05755859 245.85964844 67.74011719 246.21929687 68.44335938 246.58984375 C73.25282221 249.01501198 77.31403956 249.97696589 82.6875 250.375 C82.6875 250.705 82.6875 251.035 82.6875 251.375 C42.2596932 252.53622424 5.78341298 239.79949969 -26.3125 215.375 C-27.67568359 214.35019531 -27.67568359 214.35019531 -29.06640625 213.3046875 C-57.2545688 191.20785665 -77.32255922 161.06738426 -86.3125 126.375 C-86.49941406 125.66956055 -86.68632812 124.96412109 -86.87890625 124.23730469 C-88.72090269 116.35948061 -88.70990295 108.42094136 -88.6875 100.375 C-88.68695618 99.64233917 -88.68641235 98.90967834 -88.68585205 98.15481567 C-88.64711025 86.80734176 -87.91680551 76.19881389 -84.3125 65.375 C-84.09287598 64.68712402 -83.87325195 63.99924805 -83.64697266 63.29052734 C-79.25135476 49.76770286 -72.70206381 38.11636872 -63.3125 27.375 C-62.73242188 26.69953125 -62.15234375 26.0240625 -61.5546875 25.328125 C-51.80151728 14.77274597 -38.87546529 7.7301258 -25.3125 3.375 C-24.52141846 3.10719727 -23.73033691 2.83939453 -22.9152832 2.56347656 C-15.24010319 0.18368494 -7.99614026 -0.07555408 0 0 Z " fill="#4899BB" transform="translate(260.3125,130.625)"/>
<path d="M0 0 C0 0.33 0 0.66 0 1 C-1.0415625 1.1959375 -2.083125 1.391875 -3.15625 1.59375 C-17.22364128 4.44857861 -29.95621571 9.62951636 -41 19 C-41.80050781 19.59167969 -42.60101563 20.18335938 -43.42578125 20.79296875 C-53.34864152 29.30042862 -59.96893104 43.25977384 -62 56 C-62.25761607 59.36064319 -62.28093294 62.69338771 -62.25 66.0625 C-62.25773437 66.90876953 -62.26546875 67.75503906 -62.2734375 68.62695312 C-62.22956159 82.85371584 -56.52286164 96.46642005 -47 107 C-39.82209017 113.52814147 -32.17844038 117.92761067 -23 121 C-22.30003906 121.24492187 -21.60007812 121.48984375 -20.87890625 121.7421875 C-3.7563481 126.61527422 17.1797347 122.4426343 33.27734375 115.890625 C36 115 36 115 39 116 C40.62109375 118.01171875 40.62109375 118.01171875 42.4375 120.6875 C54.94024617 138.3709421 70.04226101 152.88534311 88 165 C86.01113147 168.97773707 80.05287182 169.8167818 76.0625 171.25 C74.95398682 171.64896484 73.84547363 172.04792969 72.70336914 172.45898438 C53.67757247 179.09616981 34.58056438 183.18762456 14.4387207 183.18530273 C12.33458848 183.18747717 10.23099222 183.20564963 8.12695312 183.22460938 C-0.40542568 183.26047525 -8.60400642 182.62486432 -17 181 C-17.71196533 180.86456787 -18.42393066 180.72913574 -19.1574707 180.58959961 C-44.529419 175.34198102 -66.33888565 159.36157812 -80.47827148 137.9453125 C-88.84075054 124.67074494 -94.02427945 108.64700952 -95 93 C-95.04237793 92.34612305 -95.08475586 91.69224609 -95.12841797 91.01855469 C-95.74750888 80.02904883 -94.18142318 70.49427786 -91 60 C-90.71125 58.94039062 -90.4225 57.88078125 -90.125 56.7890625 C-86.45678409 44.31057802 -79.10773413 34.12298997 -70 25 C-69.24074219 24.22914063 -68.48148438 23.45828125 -67.69921875 22.6640625 C-49.28674683 5.00496505 -24.84832452 -0.760663 0 0 Z " fill="#356F9C" transform="translate(157,197)"/>
<path d="M0 0 C0.78117188 0.37640625 1.56234375 0.7528125 2.3671875 1.140625 C4.25704959 2.06920776 6.13068223 3.03072412 8 4 C8 4.99 8 5.98 8 7 C9.1348196 8.1348196 10.27495486 9.26469426 11.4375 10.37109375 C17.72155191 16.92221786 21.43603494 24.37074125 24 33 C24.19335938 33.60070312 24.38671875 34.20140625 24.5859375 34.8203125 C27.85856359 52.04791021 22.56350279 68.66226421 13.03515625 82.9453125 C-1.82215269 102.36771636 -24.16233984 111.75233301 -47.74609375 115.61328125 C-63.37597577 117.34350514 -79.75240215 116.92281231 -95 113 C-95 112.67 -95 112.34 -95 112 C-94.32122803 111.96559814 -93.64245605 111.93119629 -92.94311523 111.89575195 C-79.64794251 111.16994693 -67.30226545 110.47954503 -55 105 C-53.53433594 104.35224609 -53.53433594 104.35224609 -52.0390625 103.69140625 C-37.67952127 96.59208124 -28.40228048 84.98127131 -23 70.125 C-19.97877294 58.13882469 -21.4772406 46.4131573 -27.28515625 35.609375 C-35.63573459 21.93210463 -48.78781849 15.84400807 -63.7734375 11.76171875 C-71.21152861 10.00575293 -78.38213096 9.81380124 -85.9831543 9.81469727 C-88.03260742 9.81253159 -90.08150268 9.79440044 -92.13085938 9.77539062 C-103.77331062 9.72499992 -114.63522189 11.0297208 -125.7578125 14.51171875 C-128 15 -128 15 -131 14 C-92.69470636 -4.22846549 -40.77800856 -20.15643009 0 0 Z " fill="#3984AD" transform="translate(403,205)"/>
<path d="M0 0 C1.21623047 -0.01160156 2.43246094 -0.02320313 3.68554688 -0.03515625 C27.44511379 0.04055135 48.88426287 9.23593701 66.0234375 25.515625 C72.91613811 32.91365557 85.6875 46.71216476 85.6875 57.375 C84.97851562 57.43816406 84.26953125 57.50132812 83.5390625 57.56640625 C68.25822255 59.32388784 52.96205964 63.65305886 38.50317383 68.84399414 C36.6875 69.375 36.6875 69.375 33.6875 69.375 C31.9609375 67.21484375 31.9609375 67.21484375 30.0625 64.3125 C21.31551238 51.87836978 9.24389107 46.45135069 -5.3125 43.375 C-5.3125 42.715 -5.3125 42.055 -5.3125 41.375 C-22.44681796 36.01454298 -41.08064655 37.49667359 -57.3125 45.375 C-74.13145096 56.36897886 -82.53347866 72.3713622 -87.3125 91.375 C-87.6425 91.375 -87.9725 91.375 -88.3125 91.375 C-88.48136641 85.60756274 -87.97992269 80.49018259 -86.6875 74.875 C-86.42126831 73.70976807 -86.42126831 73.70976807 -86.1496582 72.52099609 C-82.06629414 55.4633794 -74.92493347 40.65926241 -63.3125 27.375 C-62.73242188 26.69953125 -62.15234375 26.0240625 -61.5546875 25.328125 C-51.80151728 14.77274597 -38.87546529 7.7301258 -25.3125 3.375 C-24.52141846 3.10719727 -23.73033691 2.83939453 -22.9152832 2.56347656 C-15.24010319 0.18368494 -7.99614026 -0.07555408 0 0 Z " fill="#376392" transform="translate(260.3125,130.625)"/>
<path d="M0 0 C0 0.33 0 0.66 0 1 C-1.0415625 1.1959375 -2.083125 1.391875 -3.15625 1.59375 C-17.22364128 4.44857861 -29.95621571 9.62951636 -41 19 C-41.80050781 19.59167969 -42.60101563 20.18335938 -43.42578125 20.79296875 C-53.34864152 29.30042862 -59.96893104 43.25977384 -62 56 C-62.25761607 59.36064319 -62.28093294 62.69338771 -62.25 66.0625 C-62.25773437 66.90876953 -62.26546875 67.75503906 -62.2734375 68.62695312 C-62.22956159 82.85371584 -56.52286164 96.46642005 -47 107 C-39.82209017 113.52814147 -32.17844038 117.92761067 -23 121 C-22.30003906 121.24492187 -21.60007812 121.48984375 -20.87890625 121.7421875 C-7.73143104 125.48396407 7.7095047 122.88422212 21 121 C18.13294679 122.91136881 16.49103673 123.50939161 13.2109375 124.25390625 C11.79748047 124.57584961 11.79748047 124.57584961 10.35546875 124.90429688 C8.88013672 125.23010742 8.88013672 125.23010742 7.375 125.5625 C6.41464844 125.78357422 5.45429688 126.00464844 4.46484375 126.23242188 C-18.65657427 131.42454492 -44.46751083 130.9744177 -65.07348633 117.99511719 C-76.85985955 110.12037125 -84.7032349 99.28265157 -88.3125 85.5625 C-91.22554915 69.73680027 -87.07332398 54.14664796 -80 40 C-80.66 39.67 -81.32 39.34 -82 39 C-65.90397379 17.86834548 -46.59711962 4.9423065 -20.27929688 0.29589844 C-13.56189428 -0.57615511 -6.75043836 -0.28422898 0 0 Z " fill="#3B79A5" transform="translate(157,197)"/>
<path d="M0 0 C2.37923318 1.81763753 4.22839916 3.46840077 6.25 5.625 C6.81501221 6.2125708 7.38002441 6.8001416 7.9621582 7.40551758 C19.25828771 19.42888626 39 43.79096728 39 61 C39.66 61.33 40.32 61.66 41 62 C39.68 62 38.36 62 37 62 C35.6152836 60.34509503 34.23473921 58.68646283 32.87890625 57.0078125 C25.1342205 48.73178656 13.87118607 45.01611087 3 43 C3 42.34 3 41.68 3 41 C-14.13431796 35.63954298 -32.76814655 37.12167359 -49 45 C-65.81895096 55.99397886 -74.22097866 71.9963622 -79 91 C-79.33 91 -79.66 91 -80 91 C-80.16886641 85.23256274 -79.66742269 80.11518259 -78.375 74.5 C-78.10876831 73.33476807 -78.10876831 73.33476807 -77.8371582 72.14599609 C-73.75379414 55.0883794 -66.61243347 40.28426241 -55 27 C-54.41992188 26.32453125 -53.83984375 25.6490625 -53.2421875 24.953125 C-41.56627144 12.31685221 -17.77493887 -2.43307148 0 0 Z " fill="#2A5489" transform="translate(252,131)"/>
<path d="M0 0 C4.62 0 9.24 0 14 0 C14.33 0.99 14.66 1.98 15 3 C13.06183265 2.8858134 11.12444901 2.75826577 9.1875 2.625 C8.10855469 2.55539062 7.02960938 2.48578125 5.91796875 2.4140625 C3 2 3 2 0 0 Z " fill="#52A0C2" transform="translate(308,317)"/>
<path d="M0 0 C0.66 0 1.32 0 2 0 C0.7874262 3.72433382 -0.50859979 7.37802806 -2 11 C-2.99 11 -3.98 11 -5 11 C-4.32902328 6.80639551 -2.1441606 3.59665648 0 0 Z " fill="#4C6D94" transform="translate(75,237)"/>
<path d="M0 0 C4.56454251 0.54339792 7.9728176 1.79463821 12 4 C7.47907032 5.45606519 4.48351204 4.27032841 0 3 C0 2.01 0 1.02 0 0 Z " fill="#40709D" transform="translate(255,171)"/>
<path d="M0 0 C0.33 0.66 0.66 1.32 1 2 C-2.96 2.66 -6.92 3.32 -11 4 C-3.92307692 -1.30769231 -3.92307692 -1.30769231 0 0 Z " fill="#6BB9D4" transform="translate(283,216)"/>
</svg>
