<svg width="720" height="720" viewBox="0 0 720 720" fill="none" xmlns="http://www.w3.org/2000/svg">
<rect width="720" height="720" rx="130" fill="url(#paint0_linear_974_13)"/>
<path d="M613.273 327.836C611.662 319.795 611.662 308.538 606.831 297.281C603.61 286.023 598.779 273.158 592.338 258.684C585.896 244.211 576.234 231.345 566.571 218.48C563.351 213.655 558.52 207.222 552.078 202.398C560.13 171.842 542.416 144.503 542.416 144.503C513.429 142.895 494.104 152.544 486.052 158.977C484.442 158.977 484.442 157.368 482.831 157.368C478 155.76 473.169 154.152 466.727 150.936C460.286 149.327 455.455 147.719 450.623 146.111C444.182 144.503 439.351 144.503 434.52 142.895C432.909 142.895 432.909 142.895 431.299 142.895C418.416 102.69 381.377 85 381.377 85C341.117 110.731 333.065 147.719 333.065 147.719V149.327C331.455 150.936 328.234 150.936 326.623 150.936C323.403 152.544 320.182 152.544 316.961 154.152C313.74 155.76 310.519 155.76 307.299 157.368C300.857 160.585 294.416 163.801 287.974 165.409C281.532 168.626 276.701 171.842 270.26 176.667C268.649 176.667 268.649 175.058 268.649 175.058C210.675 155.76 160.753 181.491 160.753 181.491C155.922 242.602 183.299 281.199 189.74 287.632C188.13 290.848 186.519 295.673 186.519 298.889C181.688 313.363 176.857 327.836 175.247 342.31C175.247 343.918 173.636 345.526 173.636 348.743C120.494 374.474 106 429.152 106 429.152C149.481 479.006 201.013 482.222 201.013 482.222C207.455 493.48 213.896 504.737 223.558 515.994C226.779 519.211 231.61 524.035 234.831 528.86C218.727 573.889 236.442 612.485 236.442 612.485C284.753 614.094 316.961 591.579 323.403 585.146C328.234 586.754 333.065 588.363 337.896 589.971C352.39 593.187 368.494 596.403 382.987 596.403C386.208 596.403 391.039 596.403 394.26 596.403H395.87H397.481H399.091H400.701C424.857 630.175 463.507 635 463.507 635C492.494 604.444 494.104 573.889 494.104 567.456C494.104 565.848 494.104 565.848 494.104 565.848V564.24C500.545 561.023 505.377 556.199 511.818 551.374C523.091 540.117 532.753 528.86 542.416 515.994C544.026 514.386 544.026 514.386 544.026 512.778C577.844 514.386 600.39 491.871 600.39 491.871C593.948 458.099 574.623 442.018 571.403 438.801C571.403 438.801 571.403 438.801 569.792 438.801C569.792 437.193 569.792 435.585 569.792 432.368C569.792 429.152 569.792 424.327 569.792 421.111V416.287V414.678V413.07C569.792 411.462 569.792 411.462 569.792 411.462V409.854V406.637C569.792 405.029 569.792 405.029 569.792 403.421C569.792 401.813 569.792 401.813 569.792 400.205V396.988V393.772C568.182 390.556 568.182 385.731 568.182 382.515C564.961 368.041 560.13 353.567 552.078 342.31C544.026 329.444 535.974 318.187 524.701 308.538C513.429 298.889 502.156 292.456 489.273 286.023C476.39 279.591 463.507 277.982 450.623 274.766C445.792 277.982 439.351 277.982 432.909 277.982H431.299H429.688H428.078H426.468H424.857C423.247 277.982 423.247 277.982 421.636 277.982C418.416 277.982 415.195 279.591 411.974 279.591C399.091 281.199 386.208 286.023 376.545 292.456C365.273 298.889 355.61 306.93 347.558 316.579C339.506 324.62 334.675 335.877 329.844 347.134C326.623 358.392 323.403 368.041 323.403 379.298C323.403 382.515 323.403 384.123 323.403 387.339C323.403 388.947 323.403 388.947 323.403 388.947V390.556C323.403 392.164 323.403 393.772 323.403 393.772C325.013 398.596 325.013 405.029 326.623 409.854C329.844 419.503 334.675 429.152 339.507 435.585C345.948 443.626 352.39 448.45 358.831 454.883C365.273 459.708 373.325 462.924 381.377 466.14C389.429 469.357 395.87 469.357 403.922 469.357C405.532 469.357 405.532 469.357 407.143 469.357H408.753H410.364C411.974 469.357 411.974 469.357 411.974 469.357C411.974 469.357 411.974 469.357 413.584 469.357H415.195H416.805C418.416 469.357 418.416 469.357 420.026 469.357C421.636 469.357 421.636 469.357 423.247 467.749C424.857 467.749 426.468 466.14 428.078 466.14C431.299 464.532 434.52 464.532 436.13 462.924C439.351 461.316 440.961 459.708 444.182 458.099C445.792 458.099 445.792 456.491 445.792 456.491C449.013 454.883 449.013 450.058 447.403 448.45C445.792 446.842 442.571 445.234 440.961 446.842C439.351 446.842 439.351 448.45 439.351 448.45C437.74 450.058 436.13 450.058 432.909 451.667C431.299 453.275 428.078 453.275 426.468 453.275C424.857 453.275 423.247 453.275 423.247 453.275C421.636 453.275 421.636 453.275 421.636 453.275C420.026 453.275 420.026 453.275 420.026 453.275C418.416 453.275 418.416 453.275 418.416 453.275C416.805 453.275 416.805 453.275 416.805 453.275H415.195H413.584C411.974 453.275 411.974 453.275 411.974 453.275C405.532 451.667 400.701 451.667 395.87 448.45C389.429 446.842 384.597 442.018 379.766 438.801C374.935 435.585 371.714 429.152 368.494 424.327C365.273 419.503 362.052 413.07 362.052 405.029C360.442 401.813 360.442 398.596 360.442 395.38C360.442 393.772 360.442 393.772 360.442 392.164V390.556V388.947C360.442 387.339 360.442 385.731 362.052 382.515C365.273 368.041 371.714 353.567 382.987 342.31C386.208 339.094 389.429 337.485 391.039 334.269C394.26 332.661 397.481 331.053 400.701 327.836C403.922 326.228 408.753 324.62 411.974 324.62C415.195 323.012 420.026 323.012 423.247 323.012C424.857 323.012 426.468 323.012 429.688 323.012C431.299 323.012 431.299 323.012 431.299 323.012H432.909H434.52H436.13C439.351 323.012 444.182 324.62 449.013 324.62C457.065 326.228 465.117 329.444 473.169 334.269C489.273 342.31 502.156 356.784 510.208 372.865C513.429 380.906 516.649 388.947 518.26 398.596C518.26 400.205 519.87 403.421 519.87 405.029V406.637V408.246C519.87 409.854 519.87 409.854 519.87 409.854C519.87 411.462 519.87 411.462 519.87 411.462V413.07V414.678C519.87 416.287 519.87 417.895 519.87 417.895C519.87 421.111 519.87 422.719 518.26 425.936C518.26 427.544 516.649 430.76 516.649 432.368C516.649 433.977 515.039 437.193 515.039 438.801C513.429 443.626 511.818 448.45 510.208 451.667C506.987 459.708 502.156 469.357 495.714 477.398C484.442 493.48 468.338 506.345 450.623 514.386C442.571 517.602 431.299 520.819 421.636 522.427C416.805 524.035 411.974 524.035 407.143 524.035H405.532H403.922H402.312H400.701H399.091C395.87 524.035 394.26 524.035 391.039 524.035C379.766 522.427 370.104 520.819 360.442 517.602C350.779 514.386 339.507 511.17 331.455 506.345C312.13 496.696 296.026 482.222 283.143 466.14C276.701 458.099 270.26 450.058 267.039 440.409C262.208 430.76 258.987 421.111 255.766 411.462C252.545 401.813 250.935 390.556 250.935 380.906V379.298V377.69V376.082V369.649V368.041V374.474V372.865C250.935 371.257 250.935 369.649 250.935 369.649C250.935 364.825 252.545 358.392 252.545 353.567C254.156 348.743 254.156 342.31 255.766 337.485C257.377 332.661 257.377 326.228 258.987 321.404C262.208 311.754 265.429 302.105 270.26 292.456C278.312 273.158 289.584 257.076 304.078 244.211C307.299 240.994 310.519 237.778 315.351 234.561C310.519 232.953 315.351 229.737 318.571 228.129C321.792 224.912 326.623 223.304 329.844 221.696C331.455 220.088 333.065 220.088 336.286 218.48C337.896 218.48 337.896 216.871 339.507 216.871C341.117 216.871 341.117 215.263 342.727 215.263C345.948 213.655 350.779 212.047 355.61 210.439C357.221 210.439 357.221 208.83 358.831 208.83C360.442 208.83 360.442 207.222 362.052 207.222C363.662 205.614 366.883 205.614 368.494 205.614C370.104 205.614 370.104 204.006 371.714 204.006C373.325 204.006 373.325 204.006 374.935 202.398C376.545 202.398 376.545 202.398 378.156 200.789H379.766H381.377C382.987 200.789 382.987 200.789 384.597 199.181C386.208 199.181 387.818 199.181 387.818 197.573C389.429 197.573 391.039 197.573 391.039 197.573C392.649 197.573 392.649 197.573 394.26 197.573H395.87H397.481H399.091C400.701 197.573 402.312 197.573 402.312 197.573H407.143H408.753C410.364 197.573 410.364 197.573 411.974 197.573C416.805 197.573 420.026 197.573 424.857 197.573C432.909 197.573 442.571 199.181 450.623 200.789C466.727 204.006 482.831 208.83 497.325 216.871C511.818 223.304 524.701 232.953 535.974 242.602C537.584 244.211 537.584 244.211 537.584 244.211C539.195 245.819 539.195 245.819 539.195 245.819C540.805 247.427 542.416 247.427 542.416 249.035C544.026 250.643 545.636 250.643 545.636 252.251C547.247 253.86 548.857 255.468 548.857 255.468C553.688 260.292 556.909 265.117 561.74 271.55C569.792 281.199 576.234 292.456 581.065 302.105C581.065 303.713 582.675 303.713 582.675 303.713C582.675 305.322 584.286 305.322 584.286 305.322C585.896 306.93 585.896 306.93 585.896 308.538C587.507 310.146 587.507 310.146 587.507 311.754C589.117 313.363 589.117 313.363 589.117 314.971C590.727 319.795 592.338 323.012 593.948 327.836C595.558 334.269 597.169 340.702 598.779 345.526C600.39 347.135 602 348.743 603.61 348.743C605.221 348.743 606.831 347.135 606.831 345.526C613.273 340.702 613.273 334.269 613.273 327.836Z" fill="white"/>
<defs>
<linearGradient id="paint0_linear_974_13" x1="360" y1="0" x2="360" y2="720" gradientUnits="userSpaceOnUse">
<stop stop-color="#F05A28"/>
<stop offset="1" stop-color="#FFF100"/>
</linearGradient>
</defs>
</svg>
