<?xml version="1.0" encoding="UTF-8"?>
<svg version="1.1" xmlns="http://www.w3.org/2000/svg" width="2134" height="2447">
<path d="M0 0 C30.08365152 32.99992386 35.68615444 92.22903861 42.53125 134.6796875 C42.67348999 135.55999634 42.81572998 136.44030518 42.96228027 137.34729004 C55.99975616 218.48683491 61.46916873 300.59122829 67.10498047 382.50572205 C67.42807033 387.19745134 67.75580344 391.88883802 68.0859375 396.58007812 C75.56215436 502.90690831 78.91180691 609.49956653 63.53125 900.6796875 C63.28246094 901.90300781 63.03367187 903.12632812 62.77734375 904.38671875 C51.07372038 953.85855667 20.88693167 1001.86660935 -20.46875 1031.6796875 C-21.12794434 1032.15615723 -21.78713867 1032.63262695 -22.46630859 1033.12353516 C-51.01166284 1053.49389729 -83.75184363 1067.10353283 -118.2800293 1073.12646484 C-125.52785605 1074.41607537 -132.59747872 1076.198243 -139.71875 1078.0546875 C-189.71828825 1090.88010331 -241.98710225 1094.98848471 -293.46875 1095.6796875 C-294.63201813 1095.69612305 -294.63201813 1095.69612305 -295.81878662 1095.71289062 C-349.24587116 1096.43285728 -402.55386973 1093.72690607 -455.77416992 1089.13598633 C-508.37375119 1084.7394914 -560.01322795 1098.95073243 -607.46875 1120.6796875 C-608.4175 1121.11152344 -609.36625 1121.54335937 -610.34375 1121.98828125 C-637.57687806 1134.45779777 -663.80841294 1149.67721161 -688.46875 1166.6796875 C-689.68060682 1167.50316774 -690.89287511 1168.32604264 -692.10546875 1169.1484375 C-709.6560269 1181.08735523 -726.66476006 1193.71501976 -743.46875 1206.6796875 C-744.13390625 1207.19273438 -744.7990625 1207.70578125 -745.484375 1208.234375 C-758.24189656 1218.10237245 -770.65548449 1228.40111309 -782.93994141 1238.84985352 C-786.23073908 1241.64553431 -789.55458851 1244.39487729 -792.90625 1247.1171875 C-799.53307928 1252.51469193 -805.99560829 1258.09987424 -812.46875 1263.6796875 C-819.73092049 1269.93963932 -826.99683121 1276.18091943 -834.44921875 1282.21484375 C-836.76002248 1284.10115313 -839.0504864 1286.00462623 -841.33203125 1287.92578125 C-876.83364882 1317.71425743 -876.83364882 1317.71425743 -890.46875 1316.6796875 C-893.96406575 1315.43603583 -895.43179667 1313.83260043 -897.21875 1310.6171875 C-902.70342116 1298.83278568 -899.69587633 1284.38513933 -895.46875 1272.6796875 C-890.56627302 1259.45535884 -884.22312461 1247.0396394 -877.46875 1234.6796875 C-879.9981621 1235.52282487 -881.76384432 1236.42150653 -884.03125 1237.7421875 C-888.7598508 1240.1064879 -893.26935652 1240.8699101 -898.46875 1239.6796875 C-902.24292348 1237.03160774 -904.09347897 1232.97148157 -905.46875 1228.6796875 C-909.84581553 1186.21373444 -876.54397545 1143.24304048 -854.46875 1109.6796875 C-871.27595579 1105.6369286 -888.03129884 1102.99162677 -905.2734375 1101.68359375 C-906.38975555 1101.59843002 -907.50607361 1101.5132663 -908.65621948 1101.42552185 C-920.98436428 1100.51930234 -933.32627927 1099.96793924 -945.67449951 1099.41873169 C-1058.14404697 1094.35249641 -1058.14404697 1094.35249641 -1085.7421875 1066.375 C-1111.70814633 1036.16182113 -1108.4665125 974.03083278 -1110.62963867 936.1418457 C-1111.06899046 928.73281055 -1111.66054323 921.35309538 -1112.41015625 913.96875 C-1112.49619614 913.1181601 -1112.58223602 912.26757019 -1112.67088318 911.39120483 C-1113.08764483 907.30741594 -1113.51829286 903.22579407 -1113.97241211 899.14599609 C-1117.44774847 866.88165279 -1117.80403526 834.38947785 -1117.72949219 801.97290039 C-1117.71813799 797.00391717 -1117.72487133 792.03514935 -1117.73637009 787.06617355 C-1117.80813701 750.42075652 -1116.51968665 713.84668936 -1113.71875 677.3046875 C-1113.63638092 676.21122009 -1113.55401184 675.11775269 -1113.46914673 673.9911499 C-1109.32455207 619.45353954 -1102.23832689 565.34728228 -1092.16796875 511.59375 C-1092.01565292 510.78001419 -1091.8633371 509.96627838 -1091.70640564 509.12788391 C-1090.96960094 505.22351571 -1090.18037842 501.34029809 -1089.3203125 497.4609375 C-1088.07496742 491.3136738 -1087.77611113 485.04316299 -1087.32287598 478.79870605 C-1083.01671084 420.80586086 -1067.80245213 364.4679784 -1043.46875 311.6796875 C-1043.05657227 310.7717041 -1042.64439453 309.8637207 -1042.21972656 308.92822266 C-1026.59864228 274.558061 -1006.25525969 241.98674228 -982.46875 212.6796875 C-981.35113281 211.28943359 -981.35113281 211.28943359 -980.2109375 209.87109375 C-964.2412403 190.15223824 -964.2412403 190.15223824 -956.03125 182.23828125 C-954.30902899 180.52036579 -952.73740727 178.71553107 -951.15625 176.8671875 C-945.17863387 169.9513805 -938.65643193 163.57337989 -931.70703125 157.640625 C-929.41878345 155.63591227 -927.20397669 153.56211417 -924.98999023 151.47607422 C-918.37103293 145.25859304 -911.45686404 139.60756768 -904.26025391 134.07714844 C-902.45719694 132.67067554 -900.68459566 131.23315255 -898.91796875 129.78125 C-889.86909245 122.35759789 -880.43728973 115.67719066 -870.70556641 109.17871094 C-868.69378178 107.83049465 -866.6942196 106.46661924 -864.69921875 105.09375 C-810.43497208 67.95970385 -748.85160676 42.38329607 -686.54522705 22.34771729 C-684.62420023 21.72969787 -682.70437938 21.1079332 -680.78466797 20.48583984 C-580.23280705 -11.82472978 -472.95453248 -26.29441262 -311.6784668 -37.23175049 C-309.55829513 -37.31672367 -307.43832874 -37.40574518 -305.31835938 -37.49560547 C-76.89077342 -46.98793704 -76.89077342 -46.98793704 0 0 Z " fill="#FCFCFC" transform="translate(1592.46875,322.3203125)"/>
<path d="M0 0 C0.66 0.33 1.32 0.66 2 1 C1.3922876 1.36125977 0.7845752 1.72251953 0.15844727 2.09472656 C-23.70282099 16.32563459 -45.87280411 31.7789398 -66 51 C-66.4945166 51.46728516 -66.9890332 51.93457031 -67.49853516 52.41601562 C-75.50485751 60.01366856 -82.42041481 68.14719997 -89 77 C-89.41991211 77.55913086 -89.83982422 78.11826172 -90.27246094 78.69433594 C-119.53581778 117.82636582 -139.47024345 163.94559582 -155 210 C-155.31871063 210.94483246 -155.31871063 210.94483246 -155.64385986 211.90875244 C-161.15873694 228.29261202 -166.18271361 244.72644503 -170.36181641 261.50830078 C-171.14367687 264.5609664 -172.00729482 267.58550666 -172.88305664 270.61230469 C-176.18416688 282.0505798 -178.69431927 293.65289588 -181.1953125 305.28808594 C-181.997937 308.99048367 -182.82518423 312.68670573 -183.65625 316.3828125 C-203.52768645 405.86121472 -213.13440298 499.50152474 -213.16796875 591.13671875 C-213.17120165 593.27822387 -213.17456702 595.4197288 -213.17805481 597.56123352 C-213.18397955 602.01747141 -213.18590182 606.47369011 -213.18530273 610.92993164 C-213.18522183 615.41174384 -213.19211956 619.89345305 -213.20581055 624.37524414 C-218.37361293 724.74326364 -218.37361293 724.74326364 -185.125 812.89453125 C-150.0501972 845.3528669 -85.46555796 841.13101912 -41.06524658 843.31222534 C17.46971873 846.19313562 17.46971873 846.19313562 37 852 C38.23621094 852.35835937 39.47242188 852.71671875 40.74609375 853.0859375 C51.59197536 856.56502547 61.20446603 861.90455373 67 872 C71.8115412 884.43124168 68.50284963 897.16844489 63.3046875 908.94921875 C58.90584238 918.40799387 53.32127215 926.73669391 47 935 C46.17575171 936.08982141 45.35153266 937.17966493 44.52734375 938.26953125 C42.04466274 941.53380614 39.52778709 944.77058016 37 948 C36.34064453 948.84280518 36.34064453 948.84280518 35.66796875 949.70263672 C32.45318768 953.80796773 29.22738888 957.90457846 26 962 C14.73589334 976.30120071 3.52229547 990.6431818 -7.54345703 1005.09863281 C-8.61886279 1006.50246453 -9.69555383 1007.90531187 -10.77294922 1009.30761719 C-19.5109353 1020.68435642 -28.09155098 1032.14921435 -36.43212891 1043.8203125 C-37.99651891 1045.99516051 -39.57905246 1048.1555205 -41.16796875 1050.3125 C-75.96921621 1094.10597299 -75.96921621 1094.10597299 -90 1146 C-89.16983836 1149.11192161 -89.16983836 1149.11192161 -87 1151 C-72.54692738 1152.29639682 -59.50422808 1139.48946065 -49 1131 C-47.48212891 1129.78570313 -47.48212891 1129.78570313 -45.93359375 1128.546875 C-39.43928949 1123.29093152 -33.07396693 1117.87555251 -26.71337891 1112.45898438 C-25.55488653 1111.47249956 -24.3956873 1110.48684435 -23.23583984 1109.50195312 C-17.17956821 1104.35768085 -11.16439765 1099.18991946 -5.3125 1093.8125 C-1.88101856 1090.66073175 1.61146509 1087.65975619 5.25 1084.75 C11.30530109 1079.86753341 16.9119421 1074.54793506 22.5703125 1069.21875 C26.29663931 1065.71067661 30.104854 1062.31940362 34 1059 C36.27197014 1057.06382881 38.54276695 1055.12629328 40.8125 1053.1875 C41.41884277 1052.67002197 42.02518555 1052.15254395 42.64990234 1051.61938477 C46.39109382 1048.41472075 50.06132289 1045.14775173 53.6875 1041.8125 C58.09621567 1037.76579031 62.66065675 1033.97246285 67.31640625 1030.21484375 C69.94708557 1028.04367173 72.47942424 1025.79758643 75 1023.5 C79.22013944 1019.65808061 83.58027184 1016.03884779 88.015625 1012.44921875 C91.38762017 1009.68188763 94.69649025 1006.84834757 98 1004 C103.92232118 998.90115436 109.92964127 993.9221295 116 989 C117.21398067 988.00444133 118.42749224 987.00831046 119.640625 986.01171875 C127.85501194 979.27821232 136.1916984 972.73714836 144.65234375 966.31640625 C148.35720317 963.50118132 152.02384589 960.63997277 155.68408203 957.76708984 C164.56208439 950.80512006 173.61439439 944.13395929 182.79833984 937.58251953 C184.91632573 936.06014378 187.01720998 934.51721048 189.11328125 932.96484375 C218.38208548 911.36266232 249.74429188 891.8004107 282 875 C283.59980713 874.1632373 283.59980713 874.1632373 285.23193359 873.30957031 C336.43028754 846.68613257 391.21412937 828.19796536 449.51171875 833.0234375 C450.87177853 833.13097763 452.2318982 833.23776253 453.59207153 833.34385681 C456.46727446 833.56835306 459.34228994 833.79505031 462.2171936 834.02334595 C526.05397516 839.06889037 590.04025987 841.1442843 654 837 C654.75444397 836.9514386 655.50888794 836.9028772 656.28619385 836.85284424 C700.38901073 833.96091598 745.259174 827.98875115 787 813 C787.88042969 812.68450195 788.76085938 812.36900391 789.66796875 812.04394531 C809.60737534 804.76651439 828.24020711 795.06902448 845 782 C845.54366211 781.57895996 846.08732422 781.15791992 846.64746094 780.72412109 C869.43999868 762.68910796 873.39324495 733.94048734 876.61669922 706.78564453 C878.49154781 690.56067297 879.84108805 674.29003886 881 658 C881.0485614 657.32628357 881.0971228 656.65256714 881.14715576 655.95843506 C881.95651529 644.64661389 882.51448681 633.3295944 883 622 C883.06734344 620.46527039 883.06734344 620.46527039 883.13604736 618.89953613 C884.81662634 580.19051394 885.18864842 541.50151299 885.18758392 502.7591362 C885.18750147 499.25024068 885.18885979 495.7413476 885.19024658 492.23245239 C885.19390703 466.49506673 885.00140097 440.77334414 884.35173035 415.04350281 C884.00635747 401.35881577 883.86887374 387.68958108 884 374 C884.33 374 884.66 374 885 374 C889.9143759 467.23053411 892.51206597 560.5978357 877 826 C876.75121094 827.22332031 876.50242187 828.44664062 876.24609375 829.70703125 C864.54247038 879.17886917 834.35568167 927.18692185 793 957 C792.34080566 957.47646973 791.68161133 957.95293945 791.00244141 958.44384766 C762.45708716 978.81420979 729.71690637 992.42384533 695.1887207 998.44677734 C687.94089395 999.73638787 680.87127128 1001.5185555 673.75 1003.375 C623.75046175 1016.20041581 571.48164775 1020.30879721 520 1021 C518.83673187 1021.01643555 518.83673187 1021.01643555 517.64996338 1021.03320312 C464.22287884 1021.75316978 410.91488027 1019.04721857 357.69458008 1014.45629883 C305.09499881 1010.0598039 253.45552205 1024.27104493 206 1046 C205.05125 1046.43183594 204.1025 1046.86367187 203.125 1047.30859375 C175.89187194 1059.77811027 149.66033706 1074.99752411 125 1092 C123.78814318 1092.82348024 122.57587489 1093.64635514 121.36328125 1094.46875 C103.8127231 1106.40766773 86.80398994 1119.03533226 70 1132 C69.33484375 1132.51304688 68.6696875 1133.02609375 67.984375 1133.5546875 C55.22685344 1143.42268495 42.81326551 1153.72142559 30.52880859 1164.17016602 C27.23801092 1166.96584681 23.91416149 1169.71518979 20.5625 1172.4375 C13.93567072 1177.83500443 7.47314171 1183.42018674 1 1189 C-6.26217049 1195.25995182 -13.52808121 1201.50123193 -20.98046875 1207.53515625 C-23.29127248 1209.42146563 -25.5817364 1211.32493873 -27.86328125 1213.24609375 C-63.36489882 1243.03456993 -63.36489882 1243.03456993 -77 1242 C-80.49531575 1240.75634833 -81.96304667 1239.15291293 -83.75 1235.9375 C-89.23467116 1224.15309818 -86.22712633 1209.70545183 -82 1198 C-77.09752302 1184.77567134 -70.75437461 1172.3599519 -64 1160 C-66.5294121 1160.84313737 -68.29509432 1161.74181903 -70.5625 1163.0625 C-75.2911008 1165.4268004 -79.80060652 1166.1902226 -85 1165 C-88.77417348 1162.35192024 -90.62472897 1158.29179407 -92 1154 C-96.37706553 1111.53404694 -63.07522545 1068.56335298 -41 1035 C-57.80720579 1030.9572411 -74.56254884 1028.31193927 -91.8046875 1027.00390625 C-92.92100555 1026.91874252 -94.03732361 1026.8335788 -95.18746948 1026.74583435 C-107.51561428 1025.83961484 -119.85752927 1025.28825174 -132.20574951 1024.73904419 C-244.67529697 1019.67280891 -244.67529697 1019.67280891 -272.2734375 991.6953125 C-298.23939633 961.48213363 -294.9977625 899.35114528 -297.16088867 861.4621582 C-297.60024046 854.05312305 -298.19179323 846.67340788 -298.94140625 839.2890625 C-299.02744614 838.4384726 -299.11348602 837.58788269 -299.20213318 836.71151733 C-299.61889483 832.62772844 -300.04954286 828.54610657 -300.50366211 824.46630859 C-303.97899847 792.20196529 -304.33528526 759.70979035 -304.26074219 727.29321289 C-304.24938799 722.32422967 -304.25612133 717.35546185 -304.26762009 712.38648605 C-304.33938701 675.74106902 -303.05093665 639.16700186 -300.25 602.625 C-300.16763092 601.53153259 -300.08526184 600.43806519 -300.00039673 599.3114624 C-295.85580207 544.77385204 -288.76957689 490.66759478 -278.69921875 436.9140625 C-278.54690292 436.10032669 -278.3945871 435.28659088 -278.23765564 434.44819641 C-277.50085094 430.54382821 -276.71162842 426.66061059 -275.8515625 422.78125 C-274.60621742 416.6339863 -274.30736113 410.36347549 -273.85412598 404.11901855 C-269.54796084 346.12617336 -254.33370213 289.7882909 -230 237 C-229.58782227 236.0920166 -229.17564453 235.1840332 -228.75097656 234.24853516 C-213.12989228 199.8783735 -192.78650969 167.30705478 -169 138 C-167.88238281 136.60974609 -167.88238281 136.60974609 -166.7421875 135.19140625 C-150.7724903 115.47255074 -150.7724903 115.47255074 -142.5625 107.55859375 C-140.84027899 105.84067829 -139.26865727 104.03584357 -137.6875 102.1875 C-131.70988387 95.271693 -125.18768193 88.89369239 -118.23828125 82.9609375 C-115.95003345 80.95622477 -113.73522669 78.88242667 -111.52124023 76.79638672 C-104.90228293 70.57890554 -97.98811404 64.92788018 -90.79150391 59.39746094 C-88.98844694 57.99098804 -87.21584566 56.55346505 -85.44921875 55.1015625 C-76.40034245 47.67791039 -66.96853973 40.99750316 -57.23681641 34.49902344 C-55.22503178 33.15080715 -53.2254696 31.78693174 -51.23046875 30.4140625 C-40.48412016 23.06122012 -29.27479665 16.50369349 -18 10 C-17.10555176 9.48211914 -16.21110352 8.96423828 -15.28955078 8.43066406 C-12.78238232 6.98456095 -10.26819507 5.55179758 -7.75 4.125 C-6.99356201 3.68994141 -6.23712402 3.25488281 -5.45776367 2.80664062 C-3.67240789 1.80792153 -1.8398938 0.89427396 0 0 Z " fill="#E2E2E2" transform="translate(779,397)"/>
<path d="M0 0 C1.60209958 0.60962693 3.20598783 1.21459808 4.8125 1.8125 C5.864375 2.204375 6.91625 2.59625 8 3 C7.08280836 7.56437723 6.07437925 11.90893167 4.375 16.25 C2.03903662 23.03144472 1.96816802 30.51756706 4 37.375 C9.36624513 44.41819674 15.303659 48.069562 23.6875 50.5625 C24.67500244 50.87421143 25.66250488 51.18592285 26.67993164 51.50708008 C29.70295144 52.45648928 32.7316742 53.38553007 35.76196289 54.31140137 C40.17565552 55.66940508 44.57891718 57.06088108 48.984375 58.4453125 C71.61604893 65.56752282 71.61604893 65.56752282 94.35923767 72.32194519 C98.37771078 73.48455747 102.33339505 74.77131433 106.27915955 76.15620422 C114.68961236 79.04863605 123.88123381 81.33504317 132.5078125 78.04296875 C138.92769472 74.31185639 142.21519907 69.21862063 144.5859375 62.25 C144.91948242 61.28017433 144.91948242 61.28017433 145.25976562 60.29075623 C145.97574835 58.19736047 146.67594568 56.09910329 147.375 54 C147.86639819 52.54815654 148.3580994 51.09641561 148.85009766 49.64477539 C151.54937602 41.62878244 154.09756422 33.58490273 156.375 25.4375 C156.60703125 24.60831055 156.8390625 23.77912109 157.078125 22.92480469 C157.92287542 19.89082462 158.76537306 16.85627332 159.59765625 13.81884766 C162.35159554 3.95892427 165.6933263 -4.28616501 174.87890625 -9.6953125 C184.31235699 -13.63870743 194.05490325 -10.76653202 203.375 -7.875 C204.30183594 -7.59221191 205.22867187 -7.30942383 206.18359375 -7.01806641 C213.55755412 -4.57113171 220.98937243 -0.94217246 225 6.0625 C230.86207271 18.74298731 224.92558269 32.28214526 220.875 44.625 C220.29775535 46.42783438 219.72222482 48.23121853 219.1484375 50.03515625 C217.16261035 56.2598813 215.15207859 62.47652931 213.12149048 68.6867981 C212.27712981 71.27246575 211.44074339 73.86060419 210.60546875 76.44921875 C210.35058685 77.22105499 210.09570496 77.99289124 209.83309937 78.78811646 C207.29314506 86.69792799 206.46835585 94.42763596 209.90625 102.2265625 C213.06592831 107.34975518 217.70667568 109.94713386 223.0625 112.375 C228.22374912 114.80613716 231.2983256 117.98545305 234 123 C238.66907297 137.29722344 231.44046473 153.85719944 226.13671875 167.0078125 C224.40068873 171.5775685 223.16887779 176.25796736 222 181 C216.27957923 180.01861856 210.83360433 178.67702711 205.3125 176.875 C197.10103527 174.33289935 192.31429925 174.50617587 184.52734375 178.02734375 C177.80398919 183.27509344 174.86947751 191.0805025 172.4375 199 C172.14359375 199.91789307 171.8496875 200.83578613 171.546875 201.78149414 C169.57443111 207.99113942 167.71142546 214.23393348 165.90722656 220.49438477 C164.26632217 226.17479414 162.49323237 231.80750954 160.6875 237.4375 C157.00232502 248.9397128 153.42814189 260.47421505 149.90917969 272.02832031 C149.07690633 274.74862946 148.23175985 277.46454724 147.3828125 280.1796875 C146.92136545 281.68213526 146.46038797 283.18472737 146 284.6875 C145.68844971 285.66553589 145.68844971 285.66553589 145.37060547 286.66333008 C143.16231159 293.9769753 143.66757764 299.74991808 146.6953125 306.640625 C154.92071918 321.51531254 183.06435538 324.66596681 197.89379883 329.06152344 C201.36602716 330.09305317 204.83356747 331.13925834 208.30078125 332.1875 C209.35614578 332.49598877 210.41151031 332.80447754 211.49885559 333.12231445 C219.17116686 335.45675171 226.66675838 338.26453106 231.4375 345.0625 C231.91058594 345.71347656 232.38367187 346.36445312 232.87109375 347.03515625 C236.40299631 353.18237765 235.7668004 361.43790908 234.32666016 368.12792969 C233.41439556 371.24990185 232.3950466 374.30810857 231.3125 377.375 C230.80299805 378.93541016 230.80299805 378.93541016 230.28320312 380.52734375 C227.19392535 389.56997738 223.67344404 394.74212747 215 399 C206.80651758 401.51412179 198.83384475 399.79439502 190.875 397.3125 C189.95976563 397.03849365 189.04453125 396.7644873 188.1015625 396.48217773 C185.39669423 395.66830894 182.69808772 394.83602718 180 394 C178.60698428 393.57742074 177.21377461 393.15547993 175.8203125 392.734375 C167.19148462 390.08749528 158.63434771 387.23467332 150.09179688 384.32250977 C149.24294922 384.03561279 148.39410156 383.74871582 147.51953125 383.453125 C146.76776611 383.19692383 146.01600098 382.94072266 145.24145508 382.67675781 C137.95486093 380.47673178 129.8263746 379.6781615 122.5625 382.1875 C117.63057126 385.6759374 114.86776859 389.08982684 112.125 394.4375 C108.82357953 400.7510412 104.6619935 405.24963571 98 408 C86.25174966 409.9120783 75.01784901 405.53441995 64 402 C63.01580078 401.6901416 62.03160156 401.3802832 61.01757812 401.06103516 C58.09069155 400.13698069 55.16924404 399.19790103 52.25 398.25 C51.33863281 397.95665771 50.42726563 397.66331543 49.48828125 397.36108398 C48.23337891 396.94258179 48.23337891 396.94258179 46.953125 396.515625 C46.21223633 396.27102539 45.47134766 396.02642578 44.70800781 395.77441406 C43 395 43 395 42 393 C42.71582253 390.70413018 43.52259807 388.43623989 44.375 386.1875 C47.56836254 377.72241326 50.37698663 368.2666011 47.01171875 359.39453125 C40.06256796 347.70821288 24.31108133 345.39402113 12.1875 341.75 C10.30172389 341.17596149 8.41622804 340.60100154 6.53100586 340.02514648 C2.77217637 338.87790798 -0.98785758 337.73476957 -4.74902344 336.59521484 C-11.82196076 334.4500124 -18.88032377 332.25893944 -25.9375 330.0625 C-27.0939502 329.70365723 -28.25040039 329.34481445 -29.44189453 328.97509766 C-35.37855458 327.13214963 -41.31102393 325.276696 -47.23730469 323.40063477 C-49.54282709 322.67079771 -51.84948143 321.94463613 -54.15625 321.21875 C-56.47621832 320.48755376 -58.7858257 319.7380581 -61.09375 318.96875 C-68.91300603 316.42513659 -75.22435948 315.85854081 -82.828125 319.62109375 C-92.95881858 326.05299093 -95.08512037 336.83208402 -98.24609375 347.65625 C-100.83616463 356.47984974 -103.45922152 365.29242587 -106.17456055 374.07836914 C-106.68755825 375.74868965 -107.19429669 377.42094412 -107.69506836 379.0949707 C-114.24145729 400.9493831 -114.24145729 400.9493831 -123.0625 406 C-132.91670726 410.74823188 -142.4097678 407.91744035 -152.3125 404.875 C-153.24344482 404.59237305 -154.17438965 404.30974609 -155.13354492 404.01855469 C-162.22210775 401.67788981 -168.1194304 398.55870369 -172.875 392.68359375 C-178.08099829 382.28967356 -176.55818919 372.2700191 -173.10424805 361.50952148 C-172.69859619 360.31012939 -172.29294434 359.1107373 -171.875 357.875 C-171.45886991 356.59963323 -171.04458418 355.32366331 -170.63208008 354.04711914 C-169.81383765 351.52277723 -168.98493307 349.00282465 -168.14990234 346.48388672 C-166.60981831 341.81785718 -165.14704947 337.12918591 -163.6875 332.4375 C-162.11737603 327.40689135 -160.43499804 322.45069151 -158.625 317.5 C-156.07981317 309.87508882 -155.72654252 302.1537264 -159.04296875 294.703125 C-161.79272257 289.80968555 -165.59419817 287.62222482 -170.4375 285.125 C-177.30269724 281.52586021 -181.47737891 277.37937673 -184 270 C-185.1066861 260.06822193 -183.2040197 251.70908714 -179.8125 242.4375 C-179.42513672 241.32181641 -179.03777344 240.20613281 -178.63867188 239.05664062 C-175.92440008 231.30862842 -172.98199653 223.64830532 -170 216 C-168.85724609 216.31481323 -168.85724609 216.31481323 -167.69140625 216.63598633 C-165.77485109 217.16223927 -163.8567012 217.68269904 -161.9375 218.19921875 C-160.24436056 218.66077937 -158.55437553 219.13516183 -156.875 219.64453125 C-149.97411535 221.64291243 -142.39309791 222.42488874 -135.6875 219.4375 C-126.93641948 214.05939368 -124.38698724 206.53466656 -121.5625 197 C-120.989552 195.14290405 -120.989552 195.14290405 -120.4050293 193.24829102 C-119.2535168 189.50365404 -118.12522824 185.75260599 -117 182 C-116.36085402 179.90449623 -115.72032921 177.80941229 -115.078125 175.71484375 C-113.91837429 171.92537804 -112.76640201 168.13369826 -111.62109375 164.33984375 C-108.38750976 153.65336085 -105.03538295 143.00698167 -101.4375 132.4375 C-93.69371688 112.29190965 -93.69371688 112.29190965 -94.921875 91.6015625 C-99.98317609 82.76071838 -107.07418099 79.90425382 -116.4375 77.125 C-117.53843994 76.78549316 -118.63937988 76.44598633 -119.77368164 76.09619141 C-123.17825932 75.04971534 -126.58833459 74.02310384 -130 73 C-132.04191987 72.38104304 -134.08359739 71.76128582 -136.125 71.140625 C-137.09373047 70.84647705 -138.06246094 70.5523291 -139.06054688 70.24926758 C-142.81727426 69.10764837 -146.57349904 67.96443123 -150.328125 66.81591797 C-152.09015781 66.27784106 -153.85316303 65.74293688 -155.6171875 65.21142578 C-176.22198334 58.9626252 -176.22198334 58.9626252 -181.4375 50.3125 C-186.40756732 39.77595728 -184.13086025 29.28430407 -180.41796875 18.74609375 C-177.05120288 9.69890775 -173.70960186 3.08622001 -165.28222656 -2.04614258 C-155.06446195 -6.31666101 -143.06222218 -1.67943043 -133.1875 1.6875 C-131.76927361 2.15404656 -130.35031934 2.61838605 -128.93066406 3.08056641 C-126.17371017 3.97928078 -123.41964573 4.8860513 -120.66748047 5.79931641 C-116.22085075 7.25508295 -111.74990398 8.59525976 -107.25 9.875 C-102.64779521 11.19058448 -98.17672733 12.65555658 -93.6875 14.3125 C-86.37582207 16.76978545 -78.74062608 17.61201386 -71.5625 14.3125 C-65.46828245 10.67868084 -62.63377804 6.55895101 -59.953125 0.14453125 C-57.91234907 -4.4472146 -54.85014708 -7.94747207 -50.3359375 -10.26171875 C-34.05124944 -15.4085516 -14.90057879 -6.02864163 0 0 Z " fill="#A6C71C" transform="translate(1073,556)"/>
<path d="M0 0 C7.51956306 7.51956306 8.91975984 16.43446392 10.91308594 26.50537109 C11.19125649 27.8819823 11.47010252 29.25845715 11.74956512 30.63480663 C12.50996503 34.38947138 13.26095227 38.14596511 14.01040745 41.9028275 C14.81384002 45.92129942 15.62625687 49.93795477 16.43768311 53.95481873 C18.00775381 61.73407498 19.57011171 69.51485975 21.1297586 77.29621178 C23.10852623 87.1670209 25.09599028 97.03607495 27.08398438 106.9050293 C27.62946156 109.61311148 28.17493211 112.32119501 28.7203989 115.02927929 C29.08450061 116.83691532 29.44861791 118.6445482 29.81275082 120.45217794 C30.90932548 125.89620086 32.00495631 131.34041277 33.09990215 136.78476351 C37.6257889 159.28715086 42.19097878 181.78096445 46.81402302 204.26359081 C47.5033853 207.6173228 48.19157334 210.97129564 48.87982178 214.32525635 C51.15504475 225.41010276 53.43300288 236.4943242 55.72835159 247.5750227 C56.64455885 252.00714618 57.55363358 256.44070988 58.46070099 260.87471199 C58.87543301 262.89404459 59.29326237 264.9127441 59.71453094 266.93072319 C60.28329166 269.6564048 60.84117103 272.38410081 61.39648438 275.11254883 C61.5613522 275.88896414 61.72622002 276.66537945 61.89608383 277.46532249 C63.66163777 286.27439288 64.08247913 294.24921932 59 302 C54.68290841 306.64441206 50.27121846 310.61728355 43.828125 311.37109375 C36.1120919 311.51429524 30.82742118 311.28280238 25 306 C24.44828125 305.56171875 23.8965625 305.1234375 23.328125 304.671875 C12.92182271 294.88376888 12.20139988 269.7915657 9.4921875 256.47265625 C8.96165609 253.87757756 8.43084932 251.28255664 7.89968872 248.68760681 C6.64458329 242.55283102 5.39302058 236.41733825 4.14277756 230.2815699 C2.75820811 223.48741814 1.36972371 216.69406873 -0.01914263 209.90079427 C-8.4811136 168.50832331 -8.4811136 168.50832331 -12.26758766 149.81337452 C-13.20473386 145.18714578 -14.14377396 140.56130239 -15.08294296 135.93548393 C-15.72797126 132.75371896 -16.36990026 129.57133885 -17.01174927 126.38893127 C-17.39682942 124.4915948 -17.78206338 122.59428954 -18.16748047 120.69702148 C-18.34013805 119.83594976 -18.51279564 118.97487804 -18.69068527 118.08771324 C-19.48492699 113.92806508 -19.48492699 113.92806508 -21 110 C-21.65295044 111.78664063 -21.65295044 111.78664063 -22.3190918 113.609375 C-31.73511565 139.36116772 -41.24898227 165.07391522 -50.89782715 190.7394104 C-56.60338346 205.9170715 -62.27465104 221.10634866 -67.88098145 236.32095337 C-70.91387657 244.54980583 -73.95611558 252.77520739 -77 261 C-77.33318237 261.9009137 -77.66636475 262.80182739 -78.00964355 263.7300415 C-79.96332344 269.0100633 -81.92547025 274.28679493 -83.900177 279.55899048 C-84.49946758 281.1624511 -85.09612933 282.76689717 -85.68991089 284.37240601 C-86.50084811 286.5635699 -87.32140558 288.75089091 -88.14453125 290.9375 C-88.60190674 292.16339844 -89.05928223 293.38929688 -89.53051758 294.65234375 C-92.65299371 301.76571684 -96.54927045 306.67826021 -103.75 309.75 C-110.2571633 311.97613481 -116.75923905 311.82961906 -123.08984375 309.0859375 C-134.61886503 302.53160639 -137.41735446 288.1889634 -141.3359375 276.43359375 C-141.73163437 275.2589859 -142.12733124 274.08437805 -142.53501892 272.87417603 C-143.3798973 270.36543047 -144.22335553 267.85626274 -145.06436157 265.34622192 C-147.30436769 258.66211569 -149.56092983 251.98358562 -151.81640625 245.3046875 C-152.0416139 244.63737925 -152.26682156 243.97007099 -152.49885368 243.28254128 C-156.35868435 231.84810291 -160.30733466 220.44681156 -164.3125 209.0625 C-170.60403293 191.1495668 -176.74116142 173.18467359 -182.84042358 155.20553589 C-183.90143564 152.07800157 -184.96452463 148.95118582 -186.02944946 145.82498169 C-187.28767449 142.13062116 -188.54126283 138.43471963 -189.79125595 134.73756599 C-190.25827542 133.3585039 -190.72682628 131.97995939 -191.19696426 130.60195732 C-191.84448631 128.70288696 -192.48576018 126.80168957 -193.12670898 124.90039062 C-193.49005844 123.82873657 -193.8534079 122.75708252 -194.22776794 121.6529541 C-195 119 -195 119 -195 116 C-195.66 116 -196.32 116 -197 116 C-197.04053812 116.6172633 -197.08107624 117.2345266 -197.12284279 117.87049484 C-197.7586297 126.10658974 -199.19001261 134.13126198 -200.72802734 142.23925781 C-201.00945435 143.74353516 -201.29043214 145.24789661 -201.57099915 146.75233459 C-202.32890631 150.80922072 -203.09310576 154.86489797 -203.85854292 158.92036915 C-204.66283367 163.1874308 -205.46140068 167.45556364 -206.26065063 171.72357178 C-207.60399412 178.89268454 -208.95105902 186.06108944 -210.30078125 193.22900391 C-212.19575263 203.29259484 -214.08384185 213.35746787 -215.9706161 223.42259836 C-217.44516655 231.28720142 -218.92171183 239.15143014 -220.3984375 247.015625 C-220.63324994 248.2663434 -220.63324994 248.2663434 -220.87280607 249.54232883 C-221.77848888 254.36590031 -222.68517917 259.18928049 -223.59332848 264.01238823 C-223.86649797 265.46379344 -224.13938831 266.91525123 -224.41195488 268.36676979 C-225.02711398 271.64209233 -225.64644679 274.91648509 -226.27210617 278.18982697 C-226.77855306 280.84083211 -227.27687749 283.49260735 -227.76869583 286.14629364 C-228.02483772 287.4948777 -228.28133978 288.84339341 -228.53823853 290.1918335 C-228.76217096 291.38745785 -228.9861034 292.5830822 -229.21682167 293.81493759 C-230.83162079 300.38207023 -234.24331528 305.3853375 -240 309 C-247.09320274 312.46412227 -252.89972069 312.83296432 -260.5 310.5 C-267.31573946 307.8562056 -271.2045818 303.5908364 -274.4375 297.125 C-276.09561838 287.91323124 -274.37787257 278.89554798 -272.80712891 269.78344727 C-272.56928379 268.36749829 -272.33216095 266.95142784 -272.0956955 265.5352478 C-271.45081875 261.68565913 -270.79587255 257.83784422 -270.13916636 253.99025846 C-269.43889742 249.87651019 -268.74818959 245.76115619 -268.05636597 241.64598083 C-266.71837181 233.6960422 -265.37195086 225.74755433 -264.02248561 217.79955572 C-262.46956728 208.65145994 -260.92466115 199.50201742 -259.38058424 190.35242581 C-258.6057685 185.76122994 -257.83067595 181.17008082 -257.05548096 176.57894897 C-256.90208952 175.67047317 -256.74869809 174.76199736 -256.59065843 173.82599199 C-255.50452225 167.39445607 -254.41655782 160.96323095 -253.32781982 154.53213501 C-249.84324757 133.94630143 -246.38043444 113.35707696 -242.95673752 92.7610302 C-242.31635565 88.91001168 -241.67495001 85.05916529 -241.03311157 81.20838928 C-240.82927794 79.98545764 -240.6254443 78.762526 -240.41543388 77.50253582 C-240.01635444 75.10843199 -239.6172425 72.71433358 -239.21809578 70.32024097 C-238.26844431 64.62176961 -237.32121159 58.92291658 -236.37921143 53.22317505 C-235.51235899 47.97884003 -234.63885334 42.73565772 -233.76010513 37.4933033 C-233.44707754 35.61829346 -233.13655407 33.74286339 -232.82885361 31.86697197 C-228.66327411 6.48689431 -228.66327411 6.48689431 -221 0 C-214.50535174 -4.35553792 -207.64653571 -5.00282436 -200 -4 C-193.3029154 -2.17766406 -188.89121687 2.43344366 -185 8 C-182.98653662 12.17333586 -181.50739783 16.47911954 -180.03125 20.8671875 C-179.59083056 22.13117236 -179.14869968 23.394562 -178.70498657 24.65739441 C-177.76839847 27.33398844 -176.84339303 30.01418244 -175.92779541 32.69802856 C-174.48559076 36.92546546 -173.01806612 41.14383262 -171.54638672 45.36108398 C-169.82357588 50.30298415 -168.10636426 55.24674572 -166.39772606 60.19356441 C-163.00535 70.01423267 -159.53087411 79.80414229 -156.01626587 89.58166504 C-154.52275463 93.73884755 -153.03701148 97.89880385 -151.55078125 102.05859375 C-151.26001205 102.87200226 -150.96924286 103.68541077 -150.66966248 104.52346802 C-147.20462628 114.2194793 -143.75931184 123.92249911 -140.3125 133.625 C-133.89326994 151.69403349 -127.45093501 169.75476755 -121 187.8125 C-120.77353916 188.44641914 -120.54707832 189.08033829 -120.31375504 189.7334671 C-117.54305308 197.48917453 -114.77179996 205.24468492 -112 213 C-105.12215453 195.08131344 -98.44795897 177.09530225 -91.875 159.0625 C-85.15165799 140.6181345 -78.39198523 122.18813066 -71.57592773 103.77783203 C-70.87741114 101.89096172 -70.17892521 100.00408007 -69.48046875 98.1171875 C-69.12895248 97.16760162 -68.77743622 96.21801575 -68.41526794 95.23965454 C-65.68762916 87.86742122 -62.97028706 80.49141843 -60.25658417 73.1140461 C-59.55050261 71.19455501 -58.84427146 69.27511903 -58.13800049 67.35569763 C-55.37030198 59.8336468 -55.37030198 59.8336468 -52.6050415 52.31069946 C-50.13070933 45.57602435 -47.64556836 38.84551969 -45.14959717 32.11883545 C-44.02296029 29.06229083 -42.91644063 25.99906061 -41.81298828 22.93408203 C-41.12705415 21.06136715 -40.44071631 19.18880007 -39.75390625 17.31640625 C-39.46080063 16.48527817 -39.16769501 15.65415009 -38.8657074 14.7978363 C-36.24172962 7.72445937 -32.78618988 1.21199377 -25.9375 -2.4375 C-17.02100425 -6.23962838 -8.08652917 -5.55617103 0 0 Z " fill="#FFFFFF" transform="translate(1508,1751)"/>
<path d="M0 0 C4.78531039 4.21353617 8.59257443 8.93049194 9.24609566 15.45808887 C9.24333028 16.75643429 9.24333028 16.75643429 9.24050903 18.08100891 C9.24326403 19.07868695 9.24601902 20.07636499 9.2488575 21.1042757 C9.23806317 22.73549004 9.23806317 22.73549004 9.22705078 24.3996582 C9.22729185 25.56989879 9.22753292 26.74013937 9.2277813 27.94584179 C9.22628947 31.73089916 9.21106237 35.51575915 9.1953125 39.30078125 C9.19237167 41.63879298 9.19033147 43.97680602 9.18920898 46.31481934 C9.17872631 54.98073298 9.15080389 63.64661843 9.125 72.3125 C9.08375 91.679375 9.0425 111.04625 9 131 C54.54 131 100.08 131 147 131 C146.80224718 92.94537859 146.80224718 92.94537859 146.54956055 54.89111328 C146.52697754 47.50952148 146.52697754 47.50952148 146.52278137 44.04733276 C146.51513343 41.6435584 146.4976102 39.23980252 146.47212219 36.83615112 C146.43533369 33.18226099 146.43047612 29.52953684 146.43237305 25.87548828 C146.41438251 24.81537096 146.39639196 23.75525364 146.37785625 22.66301155 C146.43153991 14.89849289 148.26348042 8.40476413 153.37205029 2.38257027 C157.98410568 -1.84405225 163.79723235 -4.09526734 170 -4.375 C176.74042254 -4.05842438 182.47081774 -1.49578789 187.35379076 3.15132284 C193.15124713 9.66181064 193.57857689 17.27532635 193.50793457 25.61364746 C193.51417453 26.7542983 193.5204145 27.89494914 193.52684355 29.07016516 C193.54274741 32.87706765 193.53017873 36.68332757 193.51757812 40.49023438 C193.52080074 43.22570612 193.52997941 45.96115091 193.53881836 48.6966095 C193.55656951 55.34598703 193.55277887 61.99518357 193.5411678 68.64456809 C193.53212029 74.05046992 193.53091516 79.45632116 193.53526306 84.86222839 C193.53587599 85.63273626 193.53648893 86.40324413 193.53712043 87.19710073 C193.53839938 88.76255836 193.53969624 90.32801597 193.5410108 91.89347357 C193.55240662 106.55971544 193.53931859 121.22585718 193.51780933 135.89208263 C193.49993924 148.4660284 193.50304363 161.03982643 193.52148438 173.61376953 C193.54290875 188.2288851 193.55130808 202.84391299 193.53903532 217.45904207 C193.53776117 219.01861857 193.53650369 220.57819508 193.53526306 222.13777161 C193.53433741 223.28866981 193.53433741 223.28866981 193.53339306 224.46281847 C193.52994485 229.85985192 193.53575705 235.25682957 193.54518127 240.65385437 C193.55642009 247.23446646 193.55332184 253.81488779 193.5320583 260.39547813 C193.52157276 263.7506777 193.5195493 267.10529758 193.53065491 270.46053505 C193.54159837 274.10279019 193.52785932 277.74415405 193.50793457 281.38635254 C193.51685746 282.43957246 193.52578034 283.49279239 193.53497362 284.57792807 C193.45814598 291.82715136 192.31225805 298.28036604 187.35379076 303.84867716 C182.47081774 308.49578789 176.74042254 311.05842438 170 311.375 C163.25989656 311.05843937 157.52864311 308.49613536 152.64641953 303.84845638 C146.82303978 297.31047302 146.43162906 289.70087056 146.54589844 281.32983398 C146.5454163 280.17893563 146.54493416 279.02803728 146.54443741 277.84226322 C146.54740597 274.14321759 146.57778817 270.4449938 146.609375 266.74609375 C146.6152614 264.45186755 146.61933887 262.15763598 146.62158203 259.86340332 C146.64249251 251.38801991 146.69833767 242.91275175 146.75 234.4375 C146.8325 215.483125 146.915 196.52875 147 177 C101.46 177 55.92 177 9 177 C9.15826364 215.14464458 9.15826364 215.14464458 9.36035156 253.2890625 C9.37841797 260.6796875 9.37841797 260.6796875 9.3817749 264.14355469 C9.38790261 266.55406652 9.40194067 268.96456637 9.42230225 271.375 C9.45165655 275.03406965 9.45562155 278.69239243 9.45410156 282.3515625 C9.468494 283.41887604 9.48288643 284.48618958 9.497715 285.58584595 C9.45598618 293.10927371 8.02165253 298.48901103 3.0703125 304.2421875 C-2.84780833 309.20960619 -7.74086124 311.53293484 -15.56640625 311.30859375 C-21.68979492 310.53211268 -27.17162348 308.35291313 -31.4375 303.8125 C-36.85152392 296.35488896 -37.43880982 288.5095397 -37.38095093 279.53820801 C-37.38797089 277.85173306 -37.38797089 277.85173306 -37.39513266 276.13118792 C-37.40705833 272.37965482 -37.39763459 268.62848866 -37.38818359 264.87695312 C-37.39225037 262.18089234 -37.3974847 259.48485647 -37.40411377 256.7888031 C-37.41742606 250.23570433 -37.41458458 243.68270888 -37.40587585 237.12960613 C-37.39908982 231.80189537 -37.39818655 226.47421348 -37.4014473 221.14649963 C-37.401907 220.38709321 -37.40236669 219.62768678 -37.40284032 218.84526804 C-37.40379954 217.30235842 -37.40477218 215.75944881 -37.4057581 214.2165392 C-37.41430465 199.7620545 -37.4044894 185.30762695 -37.388357 170.85315162 C-37.37495448 158.4611545 -37.37728278 146.0692417 -37.39111328 133.67724609 C-37.40718209 119.27309199 -37.41348075 104.86898793 -37.40427649 90.46482611 C-37.40332088 88.92771753 -37.40237777 87.39060895 -37.4014473 85.85350037 C-37.40098447 85.09729134 -37.40052164 84.34108232 -37.40004479 83.56195787 C-37.3974588 78.2430803 -37.40181745 72.92423458 -37.40888596 67.60536194 C-37.41731562 61.11993454 -37.41499009 54.63461602 -37.39904372 48.14920104 C-37.39118062 44.84271727 -37.38966136 41.53645144 -37.39799118 38.2299633 C-37.40619984 34.64039258 -37.39589239 31.0513304 -37.38095093 27.46179199 C-37.38764309 26.42413586 -37.39433526 25.38647973 -37.40123022 24.31737947 C-37.33868202 16.55963705 -36.12601522 10.21939448 -31.8125 3.6875 C-22.69511385 -5.02466899 -10.93880653 -6.29331978 0 0 Z " fill="#FFFFFF" transform="translate(299,1752)"/>
<path d="M0 0 C1.04800781 0.8353125 1.04800781 0.8353125 2.1171875 1.6875 C23.12464748 18.86693394 35.77110865 46.45200711 39 73 C39.28039644 77.42125105 39.33471316 81.8206965 39.3125 86.25 C39.30686035 87.43513184 39.3012207 88.62026367 39.29541016 89.84130859 C38.862786 121.18300122 25.5029573 148.15639044 3.51831055 169.9675293 C-17.53048913 190.05226182 -47.17299201 200.56478696 -76.08984375 200.15234375 C-96.86304756 199.06488744 -116.84264295 194.09313757 -134.47265625 182.7890625 C-135.20166138 182.32733643 -135.9306665 181.86561035 -136.6817627 181.38989258 C-138.45735398 180.26440503 -140.22908904 179.13283759 -142 178 C-141.99631283 178.5904586 -141.99262566 179.18091721 -141.98882675 179.78926849 C-141.90035767 194.17913934 -141.83423311 208.56898585 -141.79275131 222.9590683 C-141.77215601 229.91812427 -141.74409391 236.87699832 -141.69824219 243.8359375 C-141.65400359 250.55327349 -141.6308536 257.27038157 -141.62049103 263.98786926 C-141.61310735 266.54908724 -141.59868881 269.11029503 -141.57707977 271.6714325 C-141.54799094 275.26230099 -141.54404647 278.85239177 -141.54589844 282.44335938 C-141.52432678 284.02724457 -141.52432678 284.02724457 -141.50231934 285.64312744 C-141.54344737 293.02583566 -142.86499559 298.11747629 -147.60546875 303.98828125 C-153.47045765 308.89749419 -159.32725618 311.39150774 -167.0625 311 C-173.62982507 310.05161299 -178.51033312 306.92456583 -182.875 302 C-186.88732496 296.33554123 -187.29253005 291.88461721 -187.26742554 285.14329529 C-187.27195665 284.25066941 -187.27648776 283.35804353 -187.28115618 282.43836838 C-187.29381865 279.44640849 -187.29217854 276.45463021 -187.29052734 273.46264648 C-187.29651196 271.31704474 -187.30331735 269.17144515 -187.31088257 267.02584839 C-187.32856947 261.19233151 -187.33323945 255.35887331 -187.33451414 249.52533221 C-187.33593626 245.87426886 -187.34020732 242.22322038 -187.34550858 238.57216072 C-187.36402689 225.81478048 -187.37217807 213.05744206 -187.37060547 200.30004883 C-187.36940778 188.44476091 -187.39043218 176.58965616 -187.4220928 164.73441452 C-187.44835276 154.53450149 -187.45896851 144.33464784 -187.45769465 134.13470131 C-187.45718731 128.0530934 -187.4627421 121.97164777 -187.48405075 115.89007378 C-187.50359389 110.15508367 -187.50344891 104.42040773 -187.48901749 98.68540573 C-187.48694716 96.59586051 -187.49152237 94.50629482 -187.5037384 92.41678429 C-187.69309501 57.74264343 -176.95961279 29.13201116 -152.5625 4.25 C-147.43250034 -0.84530258 -142.19048967 -5.22150853 -136 -9 C-134.95457031 -9.65484375 -133.90914062 -10.3096875 -132.83203125 -10.984375 C-90.60186262 -36.72605334 -37.54055874 -30.95266124 0 0 Z M-126.75 43.1875 C-138.10856363 57.72157604 -143.11634257 74.65138755 -142 93 C-139.98559588 107.33875061 -134.97026423 118.71137722 -126 130 C-125.34644531 130.85078125 -124.69289063 131.7015625 -124.01953125 132.578125 C-114.32353783 144.20581537 -97.92547528 152.26877933 -83 154 C-65.15048737 155.47763654 -46.83044785 152.09327296 -32.66796875 140.34765625 C-29.64022468 137.69315162 -26.80796036 134.88524368 -24 132 C-23.38382813 131.38125 -22.76765625 130.7625 -22.1328125 130.125 C-10.99283435 118.11922044 -5.38077224 100.18851005 -5.75 84.01171875 C-7.06925075 68.11886992 -12.14039829 55.40780891 -22 43 C-22.65355469 42.14921875 -23.30710937 41.2984375 -23.98046875 40.421875 C-32.85710211 29.77678277 -49.14222372 20.69318026 -63 19 C-88.23755251 17.18587325 -109.67996686 23.54685273 -126.75 43.1875 Z " fill="#FFFFFF" transform="translate(778,1865)"/>
<path d="M0 0 C1.73094565 1.51623417 3.43884766 3.05910435 5.125 4.625 C5.60630371 5.06005859 6.08760742 5.49511719 6.58349609 5.94335938 C29.33682954 26.64546192 39.05640334 54.15255354 41.4140625 84.32421875 C41.6432994 92.46212862 40.56447577 99.34629818 34.9375 105.5 C29.11838246 111.36159285 21.97740111 111.94507924 14.12608719 111.99967539 C11.95760832 111.99820512 9.78950694 111.98201627 7.62109375 111.96557617 C6.05343136 111.96472897 4.48576778 111.96520686 2.91810608 111.96690369 C-1.31899378 111.96776143 -5.55583681 111.95017166 -9.7928772 111.92918181 C-14.22779016 111.91037801 -18.66270957 111.90866166 -23.09765625 111.90510559 C-31.48748902 111.89579598 -39.87720396 111.87119692 -48.26698494 111.84105712 C-57.82199016 111.8074793 -67.37700113 111.79101861 -76.9320507 111.77597082 C-96.57976613 111.74464637 -116.22737563 111.69190702 -135.875 111.625 C-134.79508707 113.84946189 -133.70821423 116.07005804 -132.6171875 118.2890625 C-132.31578857 118.91176025 -132.01438965 119.53445801 -131.70385742 120.17602539 C-123.93165477 135.91654204 -109.96009741 147.35714732 -93.4375 153 C-71.7171437 159.79684619 -48.85514631 155.52621609 -28.875 145.625 C-26.13082453 144.04846908 -23.51783888 142.37027096 -20.875 140.625 C-15.03524232 138.67841411 -8.3092082 138.59992121 -2.625 141.125 C2.65311704 144.1767508 6.43796684 148.83772782 9.5625 154 C11.16611229 161.48352404 10.57836321 167.56110342 6.75390625 174.26171875 C-4.26782251 190.25247631 -27.17983312 197.57903377 -45.41796875 201.359375 C-76.7318453 206.50305283 -110.32834556 201.31499421 -136.81396484 183.30664062 C-162.51176757 164.8569361 -179.59972853 138.28536211 -184.75 107 C-189.18978025 76.8260515 -182.25621585 46.4217473 -164.29296875 21.6875 C-143.59328946 -4.52986439 -117.04155451 -19.73402473 -83.875 -23.8359375 C-54.42734641 -27.15537167 -23.29931894 -18.37317722 0 0 Z M-125.76171875 46.90234375 C-130.48731882 52.99059375 -134.35698258 59.0349129 -135.875 66.625 C-93.635 66.625 -51.395 66.625 -7.875 66.625 C-14.60547462 48.11619478 -24.49161496 36.3382468 -42.05664062 27.46630859 C-71.59679299 13.79883208 -104.85107825 22.87182083 -125.76171875 46.90234375 Z " fill="#FFFFFF" transform="translate(1027.875,1860.375)"/>
<path d="M0 0 C20.26693547 18.25503531 33.31496842 44.12760731 35.16943359 71.47851562 C35.30650013 74.40572428 35.38012521 77.3262954 35.42236328 80.25634766 C35.44468018 81.17617432 35.46699707 82.09600098 35.48999023 83.04370117 C35.46409941 90.72907702 33.64614246 96.09506848 28.17236328 101.56884766 C22.61948566 105.37964602 17.8436319 107.12844739 11.10682678 107.15507507 C10.45156098 107.1617219 9.79629518 107.16836873 9.12117285 107.17521697 C6.94544735 107.19373439 4.77027725 107.19124947 2.59448242 107.1887207 C1.02695954 107.19774479 -0.5405563 107.2080736 -2.10806274 107.21960449 C-6.34926728 107.24712477 -10.59033774 107.25645223 -14.83161998 107.26245856 C-19.26927525 107.2718552 -23.70683089 107.29805963 -28.14442444 107.32246399 C-36.54129736 107.36609722 -44.9381509 107.39466369 -53.33510262 107.41778737 C-62.89741373 107.44485608 -72.45962445 107.48876656 -82.02186382 107.53407609 C-101.68623408 107.62687687 -121.35063439 107.69857852 -141.01513672 107.75634766 C-140.08912042 109.66111724 -139.15691328 111.56287778 -138.22216797 113.46337891 C-137.70372314 114.52274658 -137.18527832 115.58211426 -136.65112305 116.67358398 C-134.26487098 121.17010761 -131.36834922 124.94587891 -128.01513672 128.75634766 C-127.37060547 129.50658203 -126.72607422 130.25681641 -126.06201172 131.02978516 C-115.94547063 142.00810567 -100.60376202 149.83146386 -85.60595703 150.93334961 C-63.75043751 151.46635927 -46.17989951 148.07597512 -27.39404297 136.53759766 C-21.74283301 133.55846269 -15.7895849 133.69143657 -9.67529297 135.41650391 C-3.04892619 138.35448995 1.32463209 143.42639284 3.92236328 150.13134766 C5.77573064 156.67917246 4.98586571 162.22223942 2.04736328 168.31884766 C-7.33688502 183.57155545 -29.26484714 191.29004903 -45.81982422 195.46337891 C-78.20411747 202.4749315 -112.58542257 197.1915319 -140.60888672 179.54541016 C-166.58696085 162.35510649 -182.159125 136.32339305 -189.82763672 106.60791016 C-195.48222795 77.31398614 -189.23964791 45.91504243 -172.90673828 21.0703125 C-162.91152755 6.55960821 -150.2191175 -5.38858662 -135.01513672 -14.24365234 C-133.90783203 -14.88947266 -132.80052734 -15.53529297 -131.65966797 -16.20068359 C-89.1966097 -39.05009009 -35.92010045 -31.2933164 0 0 Z M-126.01513672 36.75634766 C-126.79373047 37.51560547 -127.57232422 38.27486328 -128.37451172 39.05712891 C-133.16883197 43.97211157 -142.01513672 54.21392253 -142.01513672 61.75634766 C-99.77513672 61.75634766 -57.53513672 61.75634766 -14.01513672 61.75634766 C-15.89264925 50.4912725 -22.09188431 42.7068746 -30.01513672 34.75634766 C-30.63001953 34.11826172 -31.24490234 33.48017578 -31.87841797 32.82275391 C-44.6435855 20.54960568 -62.9255603 16.08169561 -80.15185547 16.3581543 C-97.95290249 17.0242416 -113.67475665 23.87661531 -126.01513672 36.75634766 Z " fill="#FFFFFF" transform="translate(1775.01513671875,1865.24365234375)"/>
<path d="M0 0 C2.14162567 0.74435735 4.28354971 1.48785685 6.42578125 2.23046875 C7.43463379 2.58544434 8.44348633 2.94041992 9.48291016 3.30615234 C16.42939897 5.73033773 23.49342988 7.76536582 30.5625 9.796875 C42.31091573 13.17973186 53.94885609 16.75813313 65.52734375 20.68359375 C69.4794879 22.02179697 73.44618568 23.28364349 77.4375 24.5 C78.93410156 24.96019531 78.93410156 24.96019531 80.4609375 25.4296875 C82.2099639 25.95589888 83.96495186 26.4629022 85.7265625 26.9453125 C92.74188675 28.98656069 97.80452027 32.48065597 101.625 38.8125 C106.1924347 49.69806214 102.16542308 61.27824734 98.6875 71.875 C98.20253238 73.39989649 97.71943789 74.92538974 97.23803711 76.45141602 C96.17040463 79.8266052 95.09219282 83.1981838 94.00732422 86.56787109 C91.98441597 92.86462316 90.00848829 99.17584677 88.03515625 105.48828125 C87.31903102 107.77848952 86.60288516 110.06869133 85.88671875 112.35888672 C85.35570557 114.05703522 85.35570557 114.05703522 84.81396484 115.78948975 C82.79707321 122.23088532 80.76977117 128.66901733 78.740448 135.10650635 C76.78203132 141.32743668 74.86434116 147.55798857 73.01635742 153.81274414 C70.67605456 160.69440644 67.33343962 164.73627979 61.0546875 168.33984375 C53.44940583 172.0470208 44.8197049 171.05514208 37.02294922 168.43415833 C34.76026036 167.65020913 32.51125546 166.83436566 30.26123047 166.01489258 C25.43643324 164.29873263 20.56307753 162.8786876 15.62890625 161.515625 C4.60615284 158.41607685 -6.32241692 155.04105438 -17.24536133 151.60839844 C-20.40290471 150.61623175 -23.56170001 149.62813303 -26.72070312 148.640625 C-32.42195456 146.85624189 -38.11856532 145.05758143 -43.8125 143.25 C-44.50527039 143.03119171 -45.19804077 142.81238342 -45.9118042 142.58694458 C-47.59813369 142.05246087 -49.28165799 141.50914668 -50.96484375 140.96484375 C-51.80909912 140.692771 -52.65335449 140.42069824 -53.52319336 140.14038086 C-60.87161011 137.28235848 -65.57253522 133.40492222 -68.8125 126.25 C-72.86267719 114.09946844 -67.65296935 101.98789429 -63.85986328 90.46044922 C-62.47927368 86.228572 -61.16994236 81.97632144 -59.86230469 77.72143555 C-58.76631421 74.16252506 -57.65494659 70.60863326 -56.54296875 67.0546875 C-54.69088392 61.12797052 -52.88364676 55.18846756 -51.09109497 49.2434845 C-49.77654578 44.89352509 -48.44848944 40.54774371 -47.11889648 36.20236206 C-46.46077111 34.04047842 -45.80834353 31.87685134 -45.16186523 29.7114563 C-44.24399807 26.64009281 -43.30576136 23.57560509 -42.36328125 20.51171875 C-42.09469803 19.59508453 -41.82611481 18.67845032 -41.5493927 17.73403931 C-39.24058943 10.34406793 -35.62183616 3.23687317 -28.625 -0.6875 C-27.97144531 -1.06777344 -27.31789063 -1.44804688 -26.64453125 -1.83984375 C-17.75994141 -6.25372314 -8.75532657 -3.17087441 0 0 Z " fill="#FEFEFE" transform="translate(1081.8125,670.75)"/>
<path d="M0 0 C5.14921194 4.46951597 8.49112401 9.96868703 9.15625 16.7734375 C9.31925079 24.32580733 7.93753505 29.89699544 2.703125 35.5078125 C-2.96133969 41.18576401 -9.43597659 42.07597719 -17.046875 42.5703125 C-37.14751749 44.31039141 -54.0364464 52.72019776 -67.1484375 68.171875 C-79.83348987 85.3274304 -81.49053953 103.31896041 -81.39643478 123.86559486 C-81.38251402 127.19242561 -81.38923862 130.51867208 -81.40127563 133.84550476 C-81.43199593 143.29230892 -81.42732448 152.73896805 -81.40722656 162.18579102 C-81.39628279 167.99338078 -81.40954424 173.80052526 -81.43712234 179.60805321 C-81.44253924 181.80753493 -81.43855996 184.00706185 -81.42472458 186.20650673 C-81.40557676 189.28310199 -81.41713255 192.35824252 -81.43505859 195.43481445 C-81.41505043 196.7761998 -81.41505043 196.7761998 -81.39463806 198.14468384 C-81.48079255 204.83371831 -83.27704835 210.1375086 -87.046875 215.6953125 C-93.57497092 221.83432004 -98.86955453 223.06742162 -107.75 222.96875 C-114.1703251 222.43625858 -118.13956427 219.96116577 -122.421875 215.2578125 C-127.34797678 209.32722627 -127.33996665 203.59418035 -127.3215332 196.19213867 C-127.32664413 195.13446289 -127.33175507 194.07678711 -127.33702087 192.98706055 C-127.35092717 189.48740992 -127.3499579 185.98795626 -127.34765625 182.48828125 C-127.3515454 180.04510933 -127.35588052 177.60193808 -127.36064148 175.1587677 C-127.36810798 170.03005792 -127.36781131 164.90141695 -127.36254883 159.77270508 C-127.35678358 153.23774638 -127.37361173 146.70307383 -127.3968935 140.16816235 C-127.41172112 135.1157113 -127.41248981 130.06332749 -127.40938377 125.01085854 C-127.40989345 122.60420482 -127.41506392 120.19754698 -127.42519569 117.79091454 C-127.48629756 101.23261641 -126.91835291 85.70394989 -120.859375 70.0703125 C-120.55676758 69.2760083 -120.25416016 68.4817041 -119.94238281 67.66333008 C-109.0035865 39.86008961 -87.29055257 17.57283788 -60.015625 5.52685547 C-44.03244311 -1.22397756 -16.38523397 -10.02592988 0 0 Z " fill="#FFFFFF" transform="translate(1222.046875,1840.3046875)"/>
<path d="M0 0 C4.98587089 4.1308329 8.30521994 8.72934922 8.93597281 15.36992431 C9.01411921 17.61342729 9.02528559 19.84838267 9.01460266 22.0932312 C9.02034098 23.37877323 9.02034098 23.37877323 9.02619523 24.6902858 C9.03649414 27.55514268 9.03253898 30.41979798 9.02856445 33.28466797 C9.03291266 35.34151393 9.03809617 37.39835826 9.04405212 39.4552002 C9.057442 45.03786689 9.05802077 50.62046588 9.05548882 56.2031455 C9.05441906 60.86517384 9.05930265 65.52718847 9.06409425 70.18921387 C9.0751895 81.18881576 9.07562679 92.1883835 9.06958008 103.18798828 C9.06354003 114.53170621 9.07585211 125.87530011 9.09715015 137.21899688 C9.11476929 146.96184545 9.12076699 156.70465455 9.1175124 166.44751847 C9.11569983 172.26489072 9.11833318 178.0821745 9.13222694 183.89953232 C9.14480559 189.37099385 9.1428607 194.84226213 9.12981606 200.3137207 C9.12745078 202.31961253 9.13018319 204.32551796 9.13843918 206.3313942 C9.14891246 209.0741702 9.14080124 211.81629851 9.12812805 214.55905151 C9.13550234 215.34875521 9.14287662 216.1384589 9.15047437 216.95209301 C9.0888279 223.31423085 7.87364277 228.86507459 3.73828125 233.9140625 C-1.9204412 238.7615695 -6.08337132 241.06768774 -13.62109375 241.765625 C-21.0643558 241.12396448 -26.99843188 238.94486416 -32.24609375 233.453125 C-36.60085495 226.572044 -37.39603534 220.26627587 -37.37980652 212.20574951 C-37.38207208 211.37886635 -37.38433763 210.55198319 -37.38667184 209.70004296 C-37.3929984 206.93119931 -37.39218333 204.16240477 -37.39135742 201.39355469 C-37.39434978 199.40744463 -37.39775249 197.42133515 -37.40153503 195.43522644 C-37.41037222 190.04045907 -37.41271305 184.64570756 -37.41335082 179.25093365 C-37.41406158 175.87936679 -37.41619641 172.50780396 -37.41884804 169.1362381 C-37.4281011 157.37060795 -37.43218304 145.60498913 -37.43139648 133.83935547 C-37.43079596 122.87799518 -37.44134293 111.91668415 -37.45714015 100.95533633 C-37.47022454 91.54030843 -37.47557999 82.1252966 -37.47494107 72.71025968 C-37.47468632 67.08903602 -37.47752521 61.46785613 -37.48811913 55.84664154 C-37.49781498 50.55744031 -37.49786904 45.26832453 -37.49060249 39.97912025 C-37.48955845 38.04137611 -37.49190882 36.10362661 -37.49796295 34.16589165 C-37.50571152 31.51330644 -37.50101916 28.86101422 -37.49333191 26.20843506 C-37.49847547 25.44819873 -37.50361904 24.68796239 -37.50891846 23.9046886 C-37.45481062 15.41029432 -36.22461741 7.81255183 -30.24609375 1.453125 C-21.29853812 -5.90375407 -9.50509478 -6.68236967 0 0 Z " fill="#FFFFFF" transform="translate(1862.24609375,1751.546875)"/>
<path d="M0 0 C5.68954661 3.34260863 9.58436695 8.19201199 11.625 14.4375 C11.814835 17.11061028 11.90368628 19.67827828 11.89242554 22.34992981 C11.89695665 23.14076657 11.90148776 23.93160332 11.90615618 24.74640483 C11.91880447 27.39325201 11.91717954 30.03989354 11.91552734 32.68676758 C11.92151235 34.58583338 11.92831783 36.48489674 11.93588257 38.38395691 C11.95355313 43.54107131 11.95823841 48.69811934 11.95951414 53.85526109 C11.96093576 57.07807687 11.96520556 60.30087577 11.97050858 63.52368736 C11.98901269 74.76946458 11.99717875 86.01519439 11.99560547 97.26098633 C11.99440412 107.73960033 12.01550419 118.21800834 12.0470928 128.69657022 C12.0732554 137.6963068 12.08397276 146.6959761 12.08269465 155.69575042 C12.08218499 161.06939954 12.08787034 166.44286561 12.10905075 171.81647682 C12.12843264 176.87184134 12.12855782 181.9268482 12.11401749 186.98222542 C12.1119282 188.83492811 12.11663739 190.68765318 12.1287384 192.54031754 C12.14422046 195.07533623 12.13486387 197.60912622 12.11947632 200.14411926 C12.12976344 200.8722499 12.14005057 201.60038054 12.15064943 202.35057575 C12.06720546 208.59802559 9.97027778 213.71970607 5.87890625 218.4609375 C5.32074219 218.90695313 4.76257813 219.35296875 4.1875 219.8125 C3.35412109 220.50472656 3.35412109 220.50472656 2.50390625 221.2109375 C-3.72028743 225.27413254 -10.16748107 225.12683898 -17.375 224.4375 C-23.49877877 222.78269247 -28.05386822 218.78938752 -31.375 213.4375 C-33.27340007 208.73643568 -33.66181396 204.48291631 -33.63569641 199.47401428 C-33.63952196 198.68978464 -33.64334751 197.905555 -33.64728898 197.09756082 C-33.65757834 194.47911554 -33.6536346 191.8608912 -33.6496582 189.24243164 C-33.65400691 187.36130064 -33.65919059 185.4801714 -33.66514587 183.5990448 C-33.67852955 178.49576708 -33.67911527 173.39256344 -33.67658257 168.28927159 C-33.67551251 164.02728633 -33.68039711 159.76531604 -33.685188 155.50333399 C-33.69628084 145.44825618 -33.69672173 135.39321573 -33.69067383 125.33813477 C-33.68463233 114.96800823 -33.69695007 104.59801731 -33.7182439 94.22791392 C-33.73586066 85.3207421 -33.74186116 76.41361344 -33.73860615 67.50642484 C-33.73679339 62.18819105 -33.7394289 56.87005402 -33.75332069 51.55183601 C-33.7658957 46.55067599 -33.76395796 41.54972741 -33.75090981 36.54857063 C-33.74854383 34.71480233 -33.75127946 32.88101917 -33.75953293 31.04726791 C-33.7700003 28.54059012 -33.76190007 26.03462187 -33.7492218 23.52796936 C-33.75659609 22.8053899 -33.76397037 22.08281043 -33.77156812 21.33833462 C-33.69943511 14.54147551 -31.54964749 8.90213208 -26.93359375 3.79296875 C-19.66587984 -2.52757443 -8.77786949 -3.87703222 0 0 Z " fill="#FFFFFF" transform="translate(552.375,1838.5625)"/>
<path d="M0 0 C4.97725721 2.97793613 8.40745897 7.07491608 10.9375 12.25 C12.6931339 21.20373288 11.55623735 28.28827176 7 36.125 C1.67930832 41.17283569 -4.15812145 43.73431897 -11.5 44.0625 C-18.45292068 43.72333314 -23.23725073 41.47945737 -28.25390625 36.7109375 C-32.6318913 31.58394778 -34.14507138 26.11462012 -34.4375 19.4375 C-33.84634013 12.5682223 -30.60895453 7.19231081 -25.5 2.6875 C-18.25852216 -2.63276943 -8.3330531 -3.7482652 0 0 Z " fill="#FFFFFF" transform="translate(1859.4375,2019.5625)"/>
<path d="M0 0 C5.05810849 4.20194759 8.35714907 8.85392241 9.08984375 15.5078125 C9.17198872 22.36691747 9.02461261 27.87328163 4.75390625 33.45703125 C-0.4681417 38.7977621 -6.2502597 41.50602947 -13.68359375 41.89453125 C-19.75420805 41.63331721 -24.79349279 39.69473765 -29.296875 35.5859375 C-34.78937797 29.57033901 -36.8042975 24.53789477 -36.6171875 16.37109375 C-35.75224027 9.57898185 -32.6931311 4.23329861 -27.37109375 -0.04296875 C-18.51561321 -5.87502963 -8.72834965 -6.11866127 0 0 Z " fill="#FFFFFF" transform="translate(555.24609375,1751.54296875)"/>
</svg>
