<?xml version="1.0"?>
<svg width="32" height="32" xmlns="http://www.w3.org/2000/svg" xmlns:svg="http://www.w3.org/2000/svg">
 <g class="layer">
  <title>Layer 1</title>
  <path d="m4.9,8.19c0,0 -2.47,2.36 -2.61,4.85l0,0.47c0.11,2.01 1.63,3.2 1.63,3.2c2.44,2.38 8.35,5.38 9.73,6.06c0,0 0.08,0.04 0.14,-0.01l0.02,-0.05l0,-0.06c-3.78,-8.25 -8.92,-14.46 -8.92,-14.46l0.01,0zm7.97,16.61c-0.03,-0.11 -0.14,-0.11 -0.14,-0.11l-9.83,0.35c1.06,1.91 2.86,3.37 4.74,2.93c1.28,-0.33 4.22,-2.37 5.17,-3.06c0.09,-0.07 0.05,-0.12 0.05,-0.12l0.01,0.01zm0.1,-1.04c-4.32,-2.92 -12.69,-7.38 -12.69,-7.38c-0.2,0.6 -0.26,1.19 -0.28,1.72l0,0.1c0,1.43 0.53,2.43 0.53,2.43c1.07,2.25 3.12,2.93 3.12,2.93c0.94,0.4 1.87,0.41 1.87,0.41c0.16,0.03 5.87,0 7.39,0c0.06,0 0.11,-0.06 0.11,-0.06l0,-0.08c0,-0.04 -0.05,-0.07 -0.05,-0.07zm-0.89,-19.51c-1.94,0.5 -3.33,2.2 -3.43,4.2l0,0.55c0.04,0.8 0.22,1.4 0.22,1.4c0.88,3.87 5.15,10.2 6.06,11.53c0.07,0.07 0.14,0.04 0.14,0.04c0.05,-0.02 0.08,-0.07 0.08,-0.13c1.41,-14.13 -1.48,-17.89 -1.48,-17.89c-0.43,0.02 -1.59,0.31 -1.59,0.31l0,-0.01zm11.07,3.03c0,0 -0.65,-2.4 -3.25,-3.04c0,0 -0.76,-0.19 -1.57,-0.29c0,0 -2.9,3.74 -1.49,17.9c0.01,0.1 0.08,0.11 0.08,0.11c0.1,0.04 0.13,-0.04 0.13,-0.04c0.96,-1.37 5.2,-7.68 6.07,-11.52c0,0 0.48,-1.87 0.02,-3.12l0.01,0zm-3.9,17.43c0,0 -0.09,0 -0.12,0.06c0,0 -0.01,0.09 0.04,0.14c0.93,0.68 3.8,2.66 5.18,3.06c0,0 0.21,0.07 0.57,0.08l0.18,0c0.92,-0.02 2.54,-0.49 4,-3.01l-9.86,-0.33l0.01,0zm10.44,-11.22c0.19,-2.75 -2.59,-5.29 -2.59,-5.3c0,0 -5.13,6.21 -8.89,14.4c0,0 -0.04,0.1 0.03,0.17l0.05,0.01l0.08,0c1.42,-0.7 7.28,-3.69 9.71,-6.05c0,0 1.53,-1.24 1.61,-3.22l0,-0.01zm2.03,2.86c0,0 -8.37,4.49 -12.69,7.4c0,0 -0.07,0.05 -0.05,0.15c0,0 0.05,0.07 0.1,0.07c1.55,0 7.42,0 7.56,-0.02c0,0 0.76,-0.03 1.69,-0.39c0,0 2.08,-0.66 3.17,-3.03c0,0 0.97,-1.93 0.22,-4.18z" fill="#ff0000" id="svg_1"/>
 </g>
</svg>