<?xml version="1.0" encoding="UTF-8"?>
<svg id="Layer_1" data-name="Layer 1" xmlns="http://www.w3.org/2000/svg" viewBox="0 0 401 401">
  <defs>
    <style>
      .cls-1 {
        fill: #c04b41;
      }

      .cls-2 {
        fill: #d65348;
      }

      .cls-3 {
        fill: #e2574c;
      }

      .cls-4 {
        fill: #1d8d22;
      }

      .cls-5 {
        fill: #2d4552;
      }

      .cls-6 {
        fill: #2ead33;
      }

      .cls-7 {
        fill: #2c3137;
        stroke: #000;
        stroke-miterlimit: 10;
      }
    </style>
  </defs>
  <g id="Layer_2" data-name="Layer 2">
    <rect class="cls-7" x=".5" y=".5" width="400" height="400" rx="54.8" ry="54.8"/>
  </g>
  <g id="Layer_1-2" data-name="Layer 1-2">
    <path class="cls-5" d="m136.94,222.06c-12.89,3.66-21.34,10.07-26.91,16.48,5.33-4.67,12.48-8.95,22.12-11.68,9.86-2.79,18.27-2.77,25.22-1.43v-5.43c-5.93-.54-12.72-.11-20.43,2.07h0Zm-27.5-45.68l-47.86,12.61s.87,1.23,2.49,2.88l40.58-10.69s-.57,7.41-5.57,14.04c9.45-7.15,10.36-18.83,10.36-18.83h0Zm40.06,112.47c-67.35,18.14-102.98-59.91-113.77-100.42-4.98-18.7-7.16-32.86-7.74-42-.06-.95-.03-1.75.03-2.48-3.49.21-5.17,2.03-4.83,7.27.58,9.13,2.76,23.3,7.74,42,10.78,40.5,46.42,118.55,113.77,100.41,14.66-3.95,25.67-11.14,33.94-20.32-7.62,6.88-17.16,12.3-29.15,15.54h0Zm12.66-160.24v4.79h26.42c-.54-1.7-1.09-3.23-1.63-4.79h-24.79Z"/>
    <path class="cls-5" d="m194.48,168.08c11.88,3.37,18.16,11.7,21.48,19.07l13.25,3.76s-1.81-25.8-25.14-32.43c-21.83-6.2-35.26,12.13-36.9,14.5,6.35-4.52,15.62-8.23,27.31-4.91h0Zm105.44,19.19c-21.85-6.23-35.28,12.14-36.89,14.48,6.36-4.52,15.62-8.22,27.3-4.89,11.86,3.38,18.14,11.7,21.47,19.07l13.26,3.78s-1.84-25.8-25.15-32.44h.01Zm-13.16,68.02l-110.19-30.8s1.19,6.05,5.77,13.88l92.78,25.94c7.64-4.42,11.64-9.01,11.64-9.01h0Zm-76.39,66.31c-87.25-23.39-76.7-134.56-62.58-187.24,5.81-21.71,11.79-37.84,16.75-48.66-2.96-.61-5.41.95-7.83,5.87-5.26,10.67-11.99,28.05-18.5,52.38-14.11,52.68-24.66,163.84,62.58,187.23,41.12,11.02,73.16-5.73,97.04-32.02-22.67,20.53-51.61,32.04-87.46,22.44h0Z"/>
    <path class="cls-3" d="m162.16,262.8v-22.43l-62.33,17.67s4.61-26.76,37.11-35.98c9.86-2.79,18.27-2.77,25.22-1.43v-92.01h31.21c-3.4-10.5-6.68-18.58-9.45-24.2-4.57-9.3-9.25-3.13-19.88,5.76-7.49,6.25-26.41,19.6-54.88,27.27-28.47,7.68-51.49,5.64-61.09,3.98-13.62-2.35-20.74-5.34-20.07,5.02.58,9.13,2.76,23.3,7.74,42,10.78,40.51,46.42,118.55,113.77,100.41,17.59-4.74,30.01-14.11,38.62-26.05h-25.97,0Zm-100.58-73.81l47.86-12.61s-1.39,18.41-19.34,23.14c-17.95,4.72-28.52-10.53-28.52-10.53Z"/>
    <path class="cls-6" d="m342.29,129.67c-12.44,2.18-42.29,4.9-79.17-4.99-36.9-9.88-61.38-27.16-71.07-35.29-13.75-11.52-19.8-19.52-25.75-7.41-5.26,10.68-11.99,28.05-18.5,52.38-14.11,52.68-24.66,163.84,62.58,187.23,87.23,23.37,133.66-78.18,147.78-130.86,6.51-24.32,9.37-42.74,10.15-54.61.9-13.45-8.34-9.55-26.01-6.45h0Zm-175.29,43.58s13.75-21.38,37.07-14.76c23.33,6.63,25.14,32.43,25.14,32.43l-62.21-17.67h0Zm56.92,95.96c-41.02-12.02-47.34-44.72-47.34-44.72l110.18,30.81s-22.24,25.78-62.84,13.92h0Zm38.96-67.22s13.73-21.37,37.04-14.72c23.31,6.64,25.15,32.43,25.15,32.43l-62.19-17.71Z"/>
    <path class="cls-2" d="m140.38,246.54l-40.55,11.49s4.4-25.09,34.27-35.04l-22.96-86.17-1.98.6c-28.47,7.68-51.49,5.64-61.09,3.98-13.62-2.35-20.74-5.34-20.07,5.02.58,9.13,2.76,23.29,7.74,42,10.78,40.5,46.42,118.55,113.77,100.41l1.98-.62-11.11-41.68h0Zm-78.8-57.55l47.86-12.61s-1.39,18.41-19.34,23.14c-17.95,4.72-28.52-10.53-28.52-10.53Z"/>
    <path class="cls-4" d="m225.77,269.66l-1.86-.45c-41.02-12.01-47.34-44.72-47.34-44.72l56.82,15.88,30.08-115.59-.36-.1c-36.9-9.88-61.38-27.16-71.07-35.29-13.75-11.52-19.8-19.52-25.75-7.41-5.26,10.68-11.99,28.05-18.5,52.38-14.11,52.68-24.66,163.84,62.58,187.23l1.79.4,13.62-52.34h0Zm-58.77-96.41s13.75-21.38,37.07-14.76c23.33,6.63,25.14,32.43,25.14,32.43l-62.21-17.67h0Z"/>
    <path class="cls-1" d="m142.45,245.95l-10.87,3.09c2.57,14.48,7.1,28.38,14.2,40.66,1.24-.27,2.46-.51,3.72-.85,3.3-.89,6.36-1.99,9.31-3.2-7.94-11.78-13.19-25.36-16.37-39.69h0Zm-4.25-102c-5.59,20.86-10.59,50.88-9.21,80.99,2.46-1.07,5.07-2.07,7.96-2.89l2.01-.45c-2.45-32.16,2.85-64.94,8.83-87.24,1.51-5.64,3.03-10.89,4.55-15.78-2.44,1.55-5.07,3.14-8.06,4.78-2.02,6.23-4.05,13.03-6.08,20.58h0Z"/>
  </g>
</svg>